<svg width="591" height="189" viewBox="0 0 591 189" fill="none" xmlns="http://www.w3.org/2000/svg">
<path d="M553.872 160.733C549.501 160.733 545.564 159.954 542.061 158.397C538.588 156.811 535.834 154.475 533.798 151.392C531.792 148.308 530.789 144.506 530.789 139.985C530.789 136.093 531.508 132.875 532.945 130.33C534.382 127.785 536.343 125.749 538.828 124.222C541.313 122.696 544.112 121.543 547.226 120.765C550.369 119.956 553.618 119.372 556.971 119.013C561.012 118.594 564.291 118.22 566.805 117.89C569.32 117.531 571.147 116.992 572.284 116.274C573.452 115.525 574.036 114.373 574.036 112.816V112.546C574.036 109.163 573.033 106.544 571.027 104.688C569.021 102.831 566.132 101.903 562.36 101.903C558.378 101.903 555.219 102.771 552.884 104.508C552.497 104.799 552.131 105.1 551.787 105.409C549.012 107.897 545.544 110.281 541.854 109.757C537.192 109.095 534.079 104.314 536.846 100.503C537.491 99.6145 538.197 98.7788 538.963 97.9962C541.717 95.1521 545.085 93.0264 549.067 91.6193C553.049 90.1823 557.45 89.4637 562.27 89.4637C565.593 89.4637 568.901 89.8529 572.194 90.6313C575.488 91.4098 578.496 92.6971 581.221 94.4934C583.945 96.2598 586.131 98.6699 587.777 101.724C589.454 104.777 590.292 108.595 590.292 113.175V151.527C590.292 155.842 586.794 159.34 582.478 159.34H579.402C576.786 159.34 574.664 157.219 574.664 154.603V150.2C574.664 150.015 574.514 149.865 574.33 149.865C574.204 149.865 574.09 149.935 574.031 150.046C573.049 151.894 571.689 153.63 569.949 155.254C568.183 156.9 565.952 158.233 563.258 159.251C560.593 160.239 557.465 160.733 553.872 160.733ZM558.093 148.787C561.357 148.787 564.186 148.143 566.581 146.856C568.976 145.539 570.817 143.802 572.105 141.647C573.422 139.491 574.081 137.141 574.081 134.596V129.339C574.081 128.194 572.575 127.314 571.476 127.635C570.278 127.995 568.931 128.309 567.434 128.579C565.937 128.848 564.455 129.088 562.988 129.297C561.521 129.507 560.249 129.686 559.171 129.836C556.746 130.165 554.576 130.704 552.659 131.453C550.743 132.201 549.231 133.249 548.124 134.596C547.016 135.914 546.462 137.62 546.462 139.716C546.462 142.71 547.555 144.97 549.74 146.497C551.926 148.024 554.71 148.787 558.093 148.787Z" fill="#FACB42"/>
<path d="M509.177 159.341C504.688 159.341 501.049 155.701 501.049 151.212V98.4904C501.049 94.0012 504.688 90.362 509.177 90.362C513.667 90.362 517.306 94.0012 517.306 98.4904V151.212C517.306 155.701 513.667 159.341 509.177 159.341ZM509.222 80.5721C506.648 80.5721 504.432 79.7188 502.576 78.0123C500.72 76.2759 499.792 74.1951 499.792 71.7701C499.792 69.3151 500.72 67.2344 502.576 65.5279C504.432 63.7915 506.648 71.7701 509.222 71.7701C511.827 71.7701 514.042 63.7915 515.869 65.5279C517.725 67.2344 518.653 69.3151 518.653 71.7701C518.653 74.1951 517.725 76.2759 515.869 78.0123C514.042 79.7188 511.827 80.5721 509.222 80.5721Z" fill="#0F9D58"/>
<path d="M440.243 118.923V151.212C440.243 155.701 436.604 159.341 432.115 159.341C427.626 159.341 423.986 155.701 423.986 151.212V98.131C423.986 93.8402 427.465 90.3619 431.755 90.3619H433.664C436.901 90.3619 439.525 92.9857 439.525 96.2224V101.599C439.525 101.866 439.741 102.083 440.009 102.083C440.205 102.083 440.381 101.964 440.458 101.784C442.052 98.062 444.54 95.093 447.922 92.8767C451.425 90.6014 455.751 89.4637 460.901 89.4637C465.661 89.4637 469.807 90.4817 473.34 92.5175C476.903 94.5533 479.657 97.5023 481.603 101.364C483.579 105.226 484.552 109.912 484.522 115.421L482.723 178.713C482.647 181.406 479.052 182.253 477.753 179.892C476.765 178.096 474.186 178.065 473.169 179.845C471.834 182.182 468.266 181.234 468.266 178.543V117.935C468.266 113.325 467.068 109.717 464.673 107.113C462.308 104.508 459.03 103.206 454.838 103.206C451.994 103.206 449.464 103.834 447.249 105.092C445.063 106.319 443.342 108.101 442.084 110.436C440.857 112.771 440.243 115.6 440.243 118.923Z" fill="#4285F4"/>
<path d="M371.22 160.733C366.849 160.733 362.912 159.954 359.409 158.397C355.936 156.811 353.182 154.475 351.146 151.392C349.14 148.308 348.137 144.506 348.137 139.985C348.137 136.093 348.856 132.875 350.293 130.33C351.73 127.785 353.691 125.749 356.176 124.222C358.661 122.696 361.46 121.543 364.574 120.765C367.717 119.956 370.966 119.372 374.319 119.013C378.361 118.594 381.639 118.22 384.154 117.89C386.668 117.531 388.495 116.992 389.632 116.274C390.8 115.525 391.384 114.373 391.384 112.816V112.546C391.384 109.163 390.381 106.544 388.375 104.688C386.369 102.831 383.48 101.903 379.708 101.903C375.726 101.903 372.567 102.771 370.232 104.508C369.845 104.799 369.48 105.1 369.135 105.409C366.36 107.897 362.892 110.281 359.202 109.757C354.54 109.095 351.427 104.314 354.194 100.503C354.839 99.6145 355.545 98.7788 356.311 97.9962C359.065 95.1521 362.433 93.0264 366.415 91.6193C370.397 90.1823 374.798 89.4637 379.618 89.4637C382.941 89.4637 386.249 89.8529 389.543 90.6313C392.836 91.4098 395.845 92.6971 398.569 94.4934C401.293 96.2598 403.479 98.6699 405.126 101.724C406.802 104.777 407.64 108.595 407.64 113.175V151.527C407.64 155.842 404.142 159.34 399.826 159.34H396.75C394.134 159.34 392.012 157.219 392.012 154.603V150.2C392.012 150.015 391.863 149.865 391.678 149.865C391.552 149.865 391.438 149.935 391.379 150.046C390.397 151.894 389.037 153.63 387.297 155.254C385.531 156.9 383.3 158.233 380.606 159.251C377.941 160.239 374.813 160.733 371.22 160.733ZM375.441 148.787C378.705 148.787 381.534 148.143 383.929 146.856C386.324 145.539 388.165 143.802 389.453 141.647C390.77 139.491 391.429 137.141 391.429 134.596V129.339C391.429 128.194 389.923 127.314 388.824 127.635C387.626 127.995 386.279 128.309 384.782 128.579C383.285 128.848 381.803 129.088 380.336 129.297C378.869 129.507 377.597 129.686 376.519 129.836C374.094 130.165 371.924 130.704 370.008 131.453C368.092 132.201 366.58 133.249 365.472 134.596C364.364 135.914 363.81 137.62 363.81 139.716C363.81 142.71 364.903 144.97 367.089 146.497C369.274 148.024 372.058 148.787 375.441 148.787Z" fill="#EA4335"/>
<path d="M237.484 77.369C237.484 71.8462 241.962 67.369 247.484 67.369H251.163C255.222 67.369 258.878 69.8222 260.416 73.5778L284.972 133.514C285.096 133.815 285.39 134.012 285.716 134.012C286.042 134.012 286.335 133.815 286.459 133.514L311.015 73.5778C312.553 69.8222 316.21 67.369 320.268 67.369H323.776C329.365 67.369 333.869 71.9498 333.775 77.5379L332.08 177.89C332.032 180.738 328.283 181.743 326.817 179.3L326.632 178.992C325.6 177.272 323.098 177.299 322.103 179.041C320.762 181.39 317.175 180.42 317.2 177.716L317.955 96.6664C317.957 96.3848 317.73 96.155 317.448 96.155C317.241 96.155 317.056 96.2804 316.978 96.4719L293.925 153.535C292.573 156.881 289.326 159.071 285.718 159.071C282.107 159.071 278.859 156.878 277.509 153.529L254.456 96.3457C254.377 96.1491 254.186 96.0203 253.974 96.0203C253.694 96.0203 253.464 96.2424 253.455 96.5224L250.667 178.372C250.582 180.855 247.209 181.521 246.098 179.299C245.242 177.586 242.787 177.538 241.907 179.24C240.78 181.42 237.484 180.619 237.484 178.164V77.369Z" fill="#4285F4"/>
<path d="M258.566 0L203.338 152.741C201.906 156.702 198.146 159.341 193.934 159.341H190.043C185.814 159.341 182.041 156.68 180.623 152.695L162.25 101.104C160.385 95.867 164.268 90.362 169.827 90.362C173.354 90.362 176.47 92.6592 177.512 96.0283L191.497 141.232C191.565 141.452 191.768 141.602 191.999 141.602C192.201 141.602 192.385 141.486 192.473 141.303L216.834 90.362L258.566 0Z" fill="#0F9D58"/>
<path d="M128.827 159.615C122.062 161.053 115.921 160.89 110.404 159.124C104.91 157.323 100.294 154.111 96.5564 149.488C92.8128 144.835 90.191 138.98 88.6908 131.923C87.2156 124.982 87.2387 118.611 88.7601 112.809C90.3046 106.971 93.1522 102.081 97.3031 98.1379C101.448 94.1656 106.741 91.4947 113.184 90.1253C117.342 89.2414 121.41 89.0808 125.386 89.6436C129.385 90.1709 133.101 91.5237 136.533 93.7019C139.994 95.8739 143.002 98.938 145.557 102.894C148.105 106.821 150.009 111.742 151.266 117.658C151.838 120.351 150.119 122.998 147.426 123.57L102.358 133.15C99.398 133.779 96.4887 131.89 95.8596 128.93C95.2305 125.97 97.1198 123.061 100.08 122.432L126.333 116.851C130.986 115.862 134.167 110.966 131.078 107.349C129.279 105.222 127.076 103.716 124.47 102.831C121.893 101.94 119.082 101.819 116.037 102.466C112.786 103.157 110.099 104.554 107.975 106.659C105.845 108.734 104.363 111.191 103.528 114.031C102.716 116.836 102.616 119.75 103.228 122.772L105.217 132.129C106.051 136.053 107.484 139.268 109.517 141.774C111.543 144.251 114.003 145.963 116.898 146.909C119.786 147.825 122.958 147.916 126.414 147.181C128.727 146.69 130.752 145.923 132.49 144.88C134.221 143.808 135.637 142.482 136.74 140.9C138.72 138.06 141.263 135.213 144.709 134.876L145.063 134.841C149.834 134.374 154.053 138.322 152.186 142.738C151.805 143.638 151.366 144.519 150.869 145.381C148.879 148.834 146.02 151.798 142.291 154.274C138.557 156.721 134.069 158.501 128.827 159.615Z" fill="#FACB42"/>
<path d="M31.1661 159.341H9.99999C4.47715 159.341 0 154.863 0 149.341V77.369C0 71.8462 4.47715 67.369 10 67.369H31.7948C40.9261 67.369 48.77 69.2102 55.3266 72.8927C61.9131 76.5452 66.9727 81.7994 70.5055 88.6554C74.0382 95.5113 75.8046 103.715 75.8046 113.265C75.8046 122.845 74.0233 131.078 70.4606 137.964C66.9278 144.85 61.8233 150.134 55.147 153.817C48.5006 157.499 40.507 159.341 31.1661 159.341ZM16.6609 134.925C16.6609 140.448 21.138 144.925 26.6609 144.925H30.3578C36.7646 144.925 42.1087 143.757 46.3899 141.422C50.6711 139.057 53.8895 135.539 56.0451 130.869C58.2007 126.168 59.2785 120.301 59.2785 113.265C59.2785 106.229 58.2007 100.391 56.0451 95.7508C53.8895 91.0804 50.7011 87.5926 46.4797 85.2873C42.2883 82.9521 37.079 81.7845 30.8518 81.7845H26.6608C21.138 81.7845 16.6609 86.2616 16.6609 91.7845V134.925Z" fill="#EA4335"/>
</svg>
