<svg width="657" height="168" viewBox="0 0 657 168" fill="none" xmlns="http://www.w3.org/2000/svg">
<path d="M258.566 0L203.338 152.741C201.906 156.702 198.146 159.341 193.934 159.341H190.043C185.814 159.341 182.041 156.68 180.622 152.695L162.25 101.104C160.385 95.867 164.268 90.362 169.827 90.362C173.354 90.362 176.47 92.6592 177.512 96.0283L191.497 141.232C191.565 141.452 191.768 141.602 191.999 141.602C192.201 141.602 192.385 141.486 192.473 141.303L216.834 90.362L258.566 0Z" fill="#0F9D58"/>
<path d="M128.827 159.616C122.062 161.053 115.921 160.89 110.404 159.124C104.91 157.323 100.294 154.111 96.5564 149.488C92.8128 144.835 90.191 138.98 88.6908 131.923C87.2156 124.982 87.2387 118.611 88.7601 112.809C90.3045 106.971 93.1522 102.081 97.3031 98.138C101.448 94.1657 106.741 91.4948 113.184 90.1254C117.342 89.2415 121.41 89.081 125.386 89.6437C129.385 90.171 133.101 91.5238 136.533 93.702C139.994 95.874 143.002 98.9381 145.557 102.894C148.105 106.821 150.009 111.743 151.266 117.658C151.838 120.351 150.119 122.998 147.426 123.57L102.358 133.15C99.398 133.779 96.4887 131.89 95.8596 128.93C95.2305 125.97 97.1198 123.061 100.08 122.432L126.333 116.851C130.986 115.862 134.167 110.966 131.078 107.349C129.279 105.222 127.076 103.716 124.47 102.831C121.893 101.94 119.082 101.819 116.037 102.466C112.786 103.157 110.099 104.555 107.975 106.659C105.845 108.734 104.363 111.191 103.528 114.032C102.716 116.836 102.616 119.75 103.228 122.773L105.217 132.129C106.051 136.053 107.484 139.268 109.517 141.775C111.543 144.252 114.003 145.963 116.898 146.909C119.786 147.825 122.958 147.916 126.414 147.182C128.727 146.69 130.752 145.923 132.49 144.88C134.221 143.808 135.637 142.482 136.74 140.901C138.72 138.06 141.263 135.213 144.709 134.876L145.063 134.841C149.834 134.375 154.053 138.322 152.186 142.738C151.805 143.638 151.366 144.519 150.869 145.381C148.879 148.834 146.02 151.799 142.291 154.274C138.557 156.721 134.069 158.501 128.827 159.616Z" fill="#FACB42"/>
<path d="M31.1661 159.341H9.99999C4.47715 159.341 0 154.863 0 149.341V77.3691C0 71.8463 4.47715 67.3691 10 67.3691H31.7948C40.9261 67.3691 48.77 69.2104 55.3266 72.8928C61.9131 76.5453 66.9727 81.7996 70.5055 88.6555C74.0382 95.5115 75.8046 103.715 75.8046 113.265C75.8046 122.845 74.0233 131.079 70.4606 137.964C66.9278 144.85 61.8233 150.134 55.147 153.817C48.5006 157.499 40.507 159.341 31.1661 159.341ZM16.6609 134.925C16.6609 140.448 21.138 144.925 26.6608 144.925H30.3578C36.7646 144.925 42.1087 143.758 46.3899 141.422C50.6711 139.057 53.8895 135.539 56.0451 130.869C58.2007 126.169 59.2785 120.301 59.2785 113.265C59.2785 106.229 58.2007 100.391 56.0451 95.751C53.8895 91.0805 50.7011 87.5927 46.4797 85.2874C42.2883 82.9522 37.079 81.7846 30.8518 81.7846H26.6608C21.138 81.7846 16.6609 86.2617 16.6609 91.7846V134.925Z" fill="#EA4335"/>
<path d="M629.511 160.536C623.203 161.877 617.484 161.684 612.353 159.957C607.245 158.197 602.932 155.12 599.413 150.727C595.916 146.3 593.462 140.767 592.05 134.125C590.656 127.567 590.651 121.527 592.033 116.006C593.443 110.478 596.059 105.841 599.88 102.096C603.73 98.3439 608.628 95.836 614.575 94.572C618.187 93.8042 621.815 93.6574 625.46 94.1317C629.104 94.606 632.545 95.8349 635.784 97.8185C639.023 99.8021 641.855 102.671 644.279 106.425C646.698 110.151 648.524 114.918 649.759 120.726C650.277 123.166 648.72 125.565 646.279 126.084L604.472 134.97C601.894 135.518 599.359 133.872 598.811 131.294C598.263 128.716 599.909 126.181 602.487 125.633L627.472 120.323C632.458 119.263 635.911 114.033 632.648 110.117C630.77 107.844 628.466 106.228 625.736 105.269C623.033 104.305 620.07 104.165 616.846 104.85C613.345 105.594 610.472 107.105 608.226 109.383C606.002 111.628 604.473 114.276 603.641 117.328C602.83 120.347 602.765 123.454 603.444 126.65L604.994 133.944C605.904 138.224 607.428 141.704 609.567 144.387C611.733 147.063 614.346 148.903 617.406 149.909C620.46 150.886 623.807 150.988 627.447 150.214C629.809 149.712 631.892 148.921 633.695 147.84C635.493 146.732 636.956 145.347 638.083 143.684C638.248 143.441 638.404 143.193 638.551 142.94C640.098 140.284 642.495 137.879 645.568 137.784C649.3 137.667 652.415 140.851 651.063 144.331C650.604 145.514 650.038 146.663 649.366 147.777C647.497 150.875 644.883 153.536 641.522 155.761C638.183 157.952 634.179 159.544 629.511 160.536Z" fill="#FACB42"/>
<path d="M576.58 104.8C578.358 107.822 576.073 111.32 572.621 111.931L572.224 112.001C569.496 112.484 566.881 110.802 565.167 108.625C564.144 107.29 562.752 106.196 560.991 105.344C559.229 104.491 557.028 104.065 554.386 104.065C550.778 104.065 547.766 104.875 545.352 106.494C542.937 108.085 541.729 110.145 541.729 112.673C541.729 114.861 542.539 116.622 544.158 117.957C545.778 119.293 548.391 120.386 551.999 121.239L562.397 123.625C568.42 125.017 572.908 127.162 575.863 130.06C578.817 132.957 580.295 136.721 580.295 141.352C580.295 145.273 579.158 148.767 576.886 151.835C574.641 154.875 571.502 157.261 567.468 158.994C563.462 160.727 558.817 161.594 553.533 161.594C546.204 161.594 540.224 160.031 535.593 156.906C532.781 154.991 530.63 152.59 529.138 149.701C527.485 146.501 530.011 143.035 533.572 142.493C536.858 141.993 539.781 144.306 541.899 146.867C542.538 147.64 543.277 148.316 544.116 148.895C546.502 150.514 549.613 151.324 553.448 151.324C557.624 151.324 560.962 150.457 563.462 148.724C565.962 146.963 567.212 144.818 567.212 142.29C567.212 140.244 566.445 138.525 564.911 137.133C563.406 135.741 561.09 134.69 557.965 133.98L546.886 131.551C540.778 130.159 536.261 127.943 533.335 124.903C530.437 121.864 528.988 118.014 528.988 113.355C528.988 109.491 530.067 106.111 532.227 103.213C534.386 100.315 537.369 98.0567 541.175 96.4374C544.982 94.7897 549.343 93.9658 554.258 93.9658C561.332 93.9658 566.9 95.4999 570.962 98.5681C573.286 100.306 575.158 102.384 576.58 104.8Z" fill="#EA4335"/>
<path d="M500.063 133.128V101.21C500.063 97.6799 502.924 94.8181 506.455 94.8181C509.985 94.8181 512.847 97.6799 512.847 101.21V154.008C512.847 157.468 510.042 160.273 506.583 160.273H505.986C502.856 160.273 500.318 157.735 500.318 154.605V149.349C500.318 149.122 500.134 148.937 499.907 148.937C499.743 148.937 499.595 149.035 499.528 149.185C498.016 152.57 495.637 155.399 492.392 157.673C489.097 159.974 484.992 161.125 480.077 161.125C475.872 161.125 472.151 160.202 468.912 158.355C465.702 156.48 463.173 153.71 461.327 150.045C459.509 146.381 458.6 141.849 458.6 136.452V101.189C458.6 97.6704 461.452 94.8181 464.97 94.8181C468.489 94.8181 471.341 97.6704 471.341 101.189V134.918C471.341 139.378 472.577 142.929 475.048 145.571C477.52 148.213 480.73 149.534 484.679 149.534C487.066 149.534 489.438 148.937 491.796 147.744C494.182 146.551 496.156 144.747 497.719 142.332C499.31 139.918 500.091 136.849 500.063 133.128Z" fill="#4285F4"/>
<path d="M413.867 161.594C407.73 161.594 402.375 160.187 397.801 157.375C393.228 154.562 389.676 150.628 387.148 145.571C384.62 140.514 383.355 134.605 383.355 127.844C383.355 121.054 384.62 115.116 387.148 110.031C389.676 104.946 393.228 100.997 397.801 98.1846C402.375 95.3721 407.73 93.9658 413.867 93.9658C420.003 93.9658 425.358 95.3721 429.932 98.1846C434.506 100.997 438.057 104.946 440.586 110.031C443.114 115.116 444.378 121.054 444.378 127.844C444.378 134.605 443.114 140.514 440.586 145.571C438.057 150.628 434.506 154.562 429.932 157.375C425.358 160.187 420.003 161.594 413.867 161.594ZM413.909 150.898C417.887 150.898 421.182 149.846 423.796 147.744C426.409 145.642 428.341 142.844 429.591 139.349C430.87 135.855 431.509 132.006 431.509 127.801C431.509 123.625 430.87 119.79 429.591 116.295C428.341 112.773 426.409 109.946 423.796 107.815C421.182 105.685 417.887 104.619 413.909 104.619C409.904 104.619 406.58 105.685 403.938 107.815C401.324 109.946 399.378 112.773 398.1 116.295C396.85 119.79 396.225 123.625 396.225 127.801C396.225 132.006 396.85 135.855 398.1 139.349C399.378 142.844 401.324 145.642 403.938 147.744C406.58 149.846 409.904 150.898 413.909 150.898Z" fill="#0F9D58"/>
<path d="M304.84 160.273C301.204 160.273 298.256 157.325 298.256 153.689V79.5838C298.256 75.9477 301.204 73 304.84 73C308.476 73 311.423 75.9477 311.423 79.5838V100.926C311.423 106.449 315.901 110.926 321.423 110.926H344.932C350.455 110.926 354.932 106.449 354.932 100.926V79.6051C354.932 75.9572 357.889 73 361.537 73C365.185 73 368.142 75.9572 368.142 79.6051V153.668C368.142 157.316 365.185 160.273 361.537 160.273C357.889 160.273 354.932 157.316 354.932 153.668V132.219C354.932 126.696 350.455 122.219 344.932 122.219H321.423C315.901 122.219 311.423 126.696 311.423 132.219V153.689C311.423 157.325 308.476 160.273 304.84 160.273Z" fill="#EA4335"/>
<path d="M279.51 104.8C281.288 107.822 279.002 111.32 275.55 111.931L275.154 112.001C272.426 112.484 269.811 110.802 268.097 108.625C267.074 107.29 265.682 106.196 263.92 105.344C262.159 104.491 259.957 104.065 257.315 104.065C253.707 104.065 250.696 104.875 248.281 106.494C245.866 108.085 244.659 110.145 244.659 112.673C244.659 114.861 245.469 116.622 247.088 117.957C248.707 119.293 251.321 120.386 254.929 121.239L265.327 123.625C271.349 125.017 275.838 127.162 278.793 130.06C281.747 132.957 283.224 136.721 283.224 141.352C283.224 145.273 282.088 148.767 279.815 151.835C277.571 154.875 274.432 157.261 270.398 158.994C266.392 160.727 261.747 161.594 256.463 161.594C249.134 161.594 243.153 160.031 238.523 156.906C235.711 154.991 233.559 152.59 232.067 149.701C230.414 146.501 232.941 143.035 236.502 142.493C239.788 141.993 242.71 144.306 244.829 146.867C245.468 147.64 246.206 148.316 247.045 148.895C249.432 150.514 252.543 151.324 256.378 151.324C260.554 151.324 263.892 150.457 266.392 148.724C268.892 146.963 270.142 144.818 270.142 142.29C270.142 140.244 269.375 138.525 267.841 137.133C266.335 135.741 264.02 134.69 260.895 133.98L249.815 131.551C243.707 130.159 239.19 127.943 236.264 124.903C233.366 121.864 231.918 118.014 231.918 113.355C231.918 109.491 232.997 106.111 235.156 103.213C237.315 100.315 240.298 98.0567 244.105 96.4374C247.912 94.7897 252.273 93.9658 257.188 93.9658C264.261 93.9658 269.83 95.4999 273.892 98.5681C276.215 100.306 278.088 102.384 279.51 104.8Z" fill="#4285F4"/>
</svg>
