<?xml version="1.0" encoding="utf-8"?>
<!-- Generator: Adobe Illustrator 27.5.0, SVG Export Plug-In . SVG Version: 6.00 Build 0)  -->
<svg version="1.1" xmlns="http://www.w3.org/2000/svg" xmlns:xlink="http://www.w3.org/1999/xlink" x="0px" y="0px"
	 viewBox="0 0 551.508 500" style="enable-background:new 0 0 551.508 500;" xml:space="preserve">
<g id="OBJECTS">
	<g>
		<defs>
			<rect id="SVGID_1_" width="551.508" height="500"/>
		</defs>
		<clipPath id="SVGID_00000080900957047134012270000003113576239681366153_">
			<use xlink:href="#SVGID_1_"  style="overflow:visible;"/>
		</clipPath>
		<g style="clip-path:url(#SVGID_00000080900957047134012270000003113576239681366153_);">
			<g>
				<path style="opacity:0.61;fill:#C2C2C2;" d="M522.131,228.423c-0.238,45.577,1.383,93.307-14.203,136.872
					c-16.299,45.561-53.241,70.984-98.819,84.473c-71.246,21.085-143.081,15.005-215.486,5.515
					c-37.707-4.942-77.147-11.828-106.838-35.591C35.37,378.545,32.301,305.227,29.778,244.863
					c-2.848-68.135,8.133-143.069,68.37-184.885c34.698-24.087,76.736-28.713,117.912-30.71
					c50.365-2.444,100.903-1.33,151.112,3.331c39.344,3.652,80.456,10.069,107.204,41.21c24.736,28.799,38.738,65.88,44.329,103.107
					C521.267,193.979,522.221,211.196,522.131,228.423z"/>
				<path style="fill:#FFFFFF;" d="M260.232,41.974c-10.394,0-18.82,8.426-18.82,18.82c0,10.394,8.426,18.82,18.82,18.82
					c10.394,0,18.82-8.426,18.82-18.82C279.052,50.4,270.626,41.974,260.232,41.974z M260.232,71.409
					c-5.862,0-10.615-4.752-10.615-10.615c0-5.862,4.752-10.615,10.615-10.615c5.862,0,10.615,4.752,10.615,10.615
					C270.847,66.656,266.094,71.409,260.232,71.409z"/>
				<path style="fill:none;stroke:#5B7799;stroke-miterlimit:10;stroke-dasharray:6;" d="M217.683,91.36
					c1.287,7.985,6.546,15.23,13.74,18.926c7.194,3.696,16.146,3.753,23.387,0.149c5.031-2.504,9.471-8.919,6.104-13.418
					c-2.889-3.861-9.571-2.515-12.291,1.467c-2.721,3.981-2.456,9.27-1.474,13.991c3.591,17.268,15.795,32.522,31.855,39.813
					c16.06,7.292,35.576,6.441,50.94-2.221c5.845-3.296,11.219-7.799,14.308-13.757c3.089-5.957,3.565-13.521,0.092-19.263
					c-0.835-1.381-2.054-2.735-3.661-2.891c-3.521-0.342-4.717,4.884-3.278,8.116c2.361,5.3,8.264,8.795,14.047,8.314
					c5.783-0.481,11.028-4.901,12.481-10.519c1.344-5.196-0.347-10.734,0.465-16.039c1.222-7.987,8.781-14.508,16.86-14.547"/>
				<g>
					<g>
						
							<circle style="fill:none;stroke:#5B7799;stroke-miterlimit:10;stroke-dasharray:6.1074,6.1074;" cx="211.294" cy="151.107" r="33.057"/>
					</g>
					
						<rect x="183.072" y="196.688" style="fill:none;stroke:#5B7799;stroke-miterlimit:10;stroke-dasharray:6;" width="70.81" height="21.555"/>
					
						<rect x="183.072" y="218.148" style="fill:none;stroke:#5B7799;stroke-miterlimit:10;stroke-dasharray:6;" width="29.871" height="19.167"/>
					
						<line style="fill:none;stroke:#5B7799;stroke-width:0.5;stroke-miterlimit:10;stroke-dasharray:4;" x1="133.413" y1="124.811" x2="191.356" y2="124.811"/>
					
						<line style="fill:none;stroke:#5B7799;stroke-width:0.5;stroke-miterlimit:10;stroke-dasharray:4;" x1="125.975" y1="135.214" x2="182.687" y2="135.214"/>
					
						<line style="fill:none;stroke:#5B7799;stroke-width:0.5;stroke-miterlimit:10;stroke-dasharray:4;" x1="125.975" y1="145.617" x2="179.797" y2="145.617"/>
					
						<line style="fill:none;stroke:#5B7799;stroke-width:0.5;stroke-miterlimit:10;stroke-dasharray:4;" x1="133.413" y1="156.019" x2="178.641" y2="156.019"/>
					<path style="fill:#5B7799;" d="M132.249,124.907c0,1.775-1.439,3.213-3.213,3.213s-3.213-1.439-3.213-3.213
						c0-1.775,1.439-3.213,3.213-3.213S132.249,123.133,132.249,124.907z"/>
					<path style="fill:#5B7799;" d="M132.634,155.538c0,1.775-1.439,3.213-3.213,3.213s-3.213-1.439-3.213-3.213
						s1.439-3.213,3.213-3.213S132.634,153.763,132.634,155.538z"/>
					<path style="fill:#5B7799;" d="M125.313,145.135c0,1.775-1.439,3.213-3.213,3.213c-1.775,0-3.213-1.439-3.213-3.213
						c0-1.775,1.439-3.213,3.213-3.213C123.875,141.922,125.313,143.36,125.313,145.135z"/>
					<path style="fill:#5B7799;" d="M125.313,134.54c0,1.775-1.439,3.213-3.213,3.213c-1.775,0-3.213-1.439-3.213-3.213
						c0-1.775,1.439-3.213,3.213-3.213C123.875,131.326,125.313,132.765,125.313,134.54z"/>
				</g>
				<g>
					<g>
						<path style="fill:#FFFFFF;" d="M207.974,175.73c-0.072-2.305,1.739-4.231,4.044-4.303c2.305-0.072,4.232,1.739,4.303,4.044
							c0.005,0.145-0.02,0.283-0.03,0.424c1.621-0.324,3.184-0.8,4.675-1.416c-0.095-0.122-0.199-0.233-0.282-0.368
							c-1.215-1.96-0.61-4.534,1.35-5.749c1.96-1.215,4.534-0.61,5.748,1.35c0.082,0.132,0.134,0.271,0.199,0.408
							c1.232-1.081,2.357-2.279,3.359-3.576c-0.154-0.06-0.31-0.11-0.46-0.19c-2.032-1.09-2.795-3.622-1.705-5.653
							c1.09-2.032,3.622-2.795,5.654-1.705c0.152,0.081,0.282,0.186,0.42,0.283c0.528-1.544,0.91-3.154,1.132-4.813
							c-0.18,0.03-0.359,0.066-0.547,0.072c-2.305,0.072-4.232-1.739-4.303-4.044c-0.072-2.305,1.739-4.232,4.044-4.303
							c0.192-0.006,0.377,0.02,0.563,0.039c-0.322-1.658-0.805-3.256-1.432-4.778c-0.156,0.132-0.311,0.265-0.49,0.376
							c-1.96,1.215-4.534,0.61-5.749-1.35c-1.215-1.96-0.61-4.534,1.35-5.748c0.18-0.111,0.369-0.191,0.557-0.272
							c-1.104-1.264-2.331-2.417-3.662-3.44c-0.072,0.207-0.147,0.414-0.254,0.613c-1.09,2.032-3.621,2.795-5.654,1.705
							c-2.032-1.09-2.795-3.622-1.705-5.654c0.106-0.198,0.237-0.374,0.369-0.547c-1.577-0.538-3.221-0.924-4.917-1.142
							c0.044,0.223,0.083,0.449,0.091,0.685c0.072,2.305-1.739,4.232-4.044,4.303c-2.305,0.072-4.232-1.739-4.303-4.043
							c-0.007-0.225,0.018-0.443,0.046-0.659c-1.676,0.333-3.29,0.831-4.826,1.476c0.148,0.17,0.294,0.344,0.417,0.543
							c1.215,1.96,0.61,4.534-1.35,5.749c-1.96,1.214-4.534,0.61-5.749-1.35c-0.114-0.184-0.197-0.378-0.279-0.572
							c-1.257,1.111-2.4,2.347-3.414,3.684c0.201,0.071,0.401,0.142,0.595,0.246c2.032,1.09,2.795,3.621,1.705,5.653
							s-3.622,2.795-5.654,1.705c-0.178-0.096-0.333-0.215-0.492-0.331c-0.521,1.562-0.893,3.19-1.101,4.867
							c0.194-0.034,0.386-0.072,0.589-0.078c2.305-0.072,4.232,1.739,4.303,4.044c0.072,2.305-1.739,4.232-4.044,4.303
							c-0.178,0.006-0.348-0.02-0.521-0.036c0.335,1.639,0.826,3.218,1.46,4.722c0.137-0.111,0.267-0.228,0.421-0.323
							c1.96-1.215,4.534-0.61,5.749,1.35c1.214,1.96,0.61,4.534-1.35,5.749c-0.135,0.084-0.279,0.138-0.42,0.205
							c1.088,1.225,2.293,2.341,3.596,3.335c0.059-0.148,0.105-0.298,0.183-0.441c1.09-2.032,3.621-2.795,5.653-1.705
							c2.032,1.09,2.795,3.622,1.705,5.654c-0.071,0.132-0.163,0.243-0.245,0.364c1.529,0.512,3.123,0.879,4.763,1.091
							C208.013,176.031,207.979,175.885,207.974,175.73z M194.282,151.617c-0.292-9.393,7.085-17.244,16.478-17.537
							c9.393-0.292,17.244,7.085,17.537,16.478c0.292,9.393-7.085,17.245-16.478,17.537
							C202.426,168.387,194.575,161.01,194.282,151.617z"/>
					</g>
					<path style="fill:#70A1BD;" d="M224.019,147.628c-1.909-7.011-9.165-11.161-16.175-9.252
						c-7.01,1.908-11.161,9.165-9.252,16.175c1.908,7.01,9.165,11.16,16.175,9.252C221.777,161.893,225.928,154.637,224.019,147.628
						z M213.466,159.022c-4.374,1.191-8.902-1.399-10.093-5.773c-1.191-4.374,1.399-8.903,5.773-10.094
						c4.374-1.191,8.902,1.399,10.093,5.774C220.43,153.303,217.84,157.831,213.466,159.022z"/>
				</g>
				<g>
					<g>
						<g>
							
								<line style="fill:none;stroke:#000000;stroke-width:4;stroke-miterlimit:10;" x1="438.107" y1="321.822" x2="438.107" y2="396.984"/>
							
								<line style="fill:none;stroke:#000000;stroke-width:5;stroke-miterlimit:10;" x1="469.809" y1="396.24" x2="407.653" y2="396.24"/>
						</g>
						<path style="fill:#70A1BD;" d="M490.685,282.949c-4.244,12.728-10.71,24.34-21.14,32.999c-4.506,3.741-8.31,5.657-13.86,7.152
							c-6.706,1.807-13.677,2.233-20.589,2.462c-10.083,0.334-20.179,0.308-30.26-0.079c-6.246-0.24-13.368-1.081-16.967-6.192
							c-6.262-8.893,0.091-19.879,8.914-23.081c8.489-3.081,17.51-4.537,25.536-8.865c16.81-9.065,21.225-29.531,25.63-46.491
							c3.204-12.338,5.252-25.902,14.142-35.762c11.181-12.402,28.842-9.965,36.265,4.975c5.331,10.731,1.456,23.956,0.308,35.231
							C497.374,257.972,494.723,270.84,490.685,282.949z"/>
						<path style="fill:#D98C73;" d="M333.931,352.026c-3.151,0.928-8.348-0.201-10.038-2.319c-1.942-2.433,0.419-6.466,1.505-8.814
							c8.556-18.507,12.939-37.705,28.33-52.305c1.152-1.093,2.381-2.175,3.878-2.704c2.975-1.05,6.483,0.473,8.213,3.112
							c1.884,2.873,2.678,8.656,3.038,12.168c0.545,5.322-1.299,10.796-4.056,15.284c-3.505,5.705-8.533,10.283-13.414,14.866
							c-4.881,4.583-9.766,9.362-12.864,15.298c-0.841,1.612-1.58,3.347-2.939,4.556
							C335.155,351.55,334.587,351.833,333.931,352.026z"/>
						<path d="M330.546,346.598c-2.574-1.167-4.56-2.967-5.909-5.229c-1.026,0.323-2.254,0.852-2.986,0.911
							c-1.83,0.147-3.702-0.071-5.518-0.28c-2.879-0.332-16.506-4.208-16.512,1.451c-0.004,3.954,9.791,8.09,12.5,9.397
							c3.541,1.708,7.209,3.097,10.996,4.149c2.316,0.644,7.73,3.505,9.832,1.821c0.444-0.355,0.712-0.88,0.967-1.388
							c1.502-2.994,3.005-5.988,4.507-8.982C335.708,348.251,333.016,347.718,330.546,346.598z"/>
						<path style="fill:#E8654B;" d="M365.518,334.612c-1.53,2.836-3.172,5.597-4.972,8.254c-12.275-2.986-24.253-7.191-35.7-12.532
							c5.315-3.966,7.522-15.423,10.744-21.212c4.435-7.969,9.526-15.552,14.265-23.337c5.003-8.219,10.349-17.561,18.289-23.341
							c17.091-12.441,39.55,0.156,57.514,3.146c9.179,1.528,18.951,9.477,26.77,3.013c24.491,58.998-29.899,46.136-38.144,38.994
							c-4.755-6.605-22.181-30.702-30.361-14.245C377.279,306.719,372.609,321.467,365.518,334.612z"/>
						<path style="fill:#D98C73;" d="M384.872,396.144c-18.966,20.5-12.348-41.048-2.473-42.197
							C407.797,348.645,387.842,386.565,384.872,396.144z"/>
						<path style="fill:#E8654B;" d="M358.275,374.387c10.248-0.905,30.591,2.698,35.664-0.645
							c3.619-2.384,5.009-15.788,5.761-19.855c1.246-6.741,1.937-13.567,3.07-20.326c0.742-4.428,1.356-13.605,4.798-16.88
							c3.699-3.517,19.652-1.842,18.911-9c-0.268-2.589-5.497-5.847-7.213-7.696c-2.397-2.583-4.724-5.219-7.227-7.703
							c-4.91-4.872-10.57-10.192-17.24-12.495c-4.985-1.722-14.03-0.845-15.576,5.716
							C372.21,315.26,365.126,345.315,358.275,374.387z M404.155,315.449l0.009,4.358
							C404.042,318.428,404.023,316.912,404.155,315.449z"/>
						<path d="M351.356,407.094c3.645-6.685,14.105-7.905,19.879-14.627c4.461,0.863,10,1.424,15.904-0.921
							c0.345,0.072,0.689,0.15,1.028,0.251C392.777,409.347,346.029,419.412,351.356,407.094z"/>
						<path style="fill:none;stroke:#131834;stroke-miterlimit:10;" d="M432.62,311.689c-9.17-3.008-16.851-13.101-24.819-20.13
							c-37.628-28.254-34.177,24.373-39.91,44.261"/>
						<path style="fill:#D6906F;" d="M478.413,258.518c4.288,11.431-1.46,20.928-13.192,17.105
							c-20.337-7.375-33.1-85.732,0.246-53.968C470.93,232.962,474.47,246.183,478.413,258.518z"/>
						<path style="fill:#F2B430;" d="M452.966,201.03c5.404,2.252,8.333,7.442,10.595,12.544c1.087,2.453,2.224,4.951,3.117,7.472
							c0.98,2.766,2.834,5.773,3.089,8.721c0.038,0.438,0.029,0.902-0.191,1.282c-0.155,0.267-0.4,0.468-0.64,0.662
							c-3.409,2.746-6.818,5.268-10.799,7.087c-1.171,0.535-2.347,1.066-3.482,1.675c-1.527,0.819-2.625,2.038-4.066,2.981
							c-0.76,0.498-1.571,0.918-2.416,1.251c0.514,0.27,0.758,0.86,0.955,1.406c2.181,6.061,3.382,12.504,4.705,18.81
							c0.553,2.637,1.612,6.07,0.826,8.77c-0.581,1.995-2.351,2.617-4.242,2.93c-3.688,0.611-7.549,0.432-11.272,0.562
							c-5.632,0.196-11.201,0.774-16.812,1.237c-31.365,2.587-31.449-2.544-35.67-30.397
							C377.959,194.939,411.751,183.035,452.966,201.03z"/>
						<path style="fill:#D56D5B;" d="M403.647,234.819c3.535,52.662-19.379,44.547-19.402,31.873
							C377.648,200.733,404.753,204.947,403.647,234.819z"/>
						<path style="fill:#F2B430;" d="M397.381,235.337c5.31-0.626,10.615-1.292,15.915-1.998
							c-1.644-12.665,2.306-32.656-5.264-42.107c-26.336-3.835-23.504,28.588-27.234,45.925
							C386.331,236.594,391.858,235.988,397.381,235.337z"/>
						<path style="fill:#D6906F;" d="M416.147,160.873c14.524,8.12,1.562,29.892,13.652,35.814
							c-6.874,2.563-14.458,3.192-21.661,1.795c0.308,0.06,0.123-4.586,0.094-4.894c-0.312-3.213-2.642-3.103-5.095-3.971
							c-1.522-0.538-2.771-1.683-3.703-3.001c-2.913-4.121-3.885-9.813-4.522-14.716c-0.507-3.902,0.005-7.684,2.909-10.578
							c1.713-1.707,3.448-1.671,5.5-2.648c2.238-1.066,3.808-1.117,6.258-0.531C411.887,158.695,414.082,159.719,416.147,160.873z"
							/>
						<path d="M398.378,167.545c0.741-0.631,1.473-1.273,2.336-1.713c0.787-0.401,2.413-0.775,3.194-0.147
							c0.635,0.51,0.387,1.042,0.461,1.75c0.221,2.111,1.633,2.926,3.575,1.642c0.964-0.637,2.08-1.459,3.154-1.033
							c1.575,0.625,0.875,2.268,1.287,3.45c0.567,1.63,1.874,3.498,2.985,4.81c1.543,1.822,3.314,3.948,5.466,5.086
							c6.675,3.53,5.16-6.842,6.41-9.921c0.357-0.88,0.822-1.744,0.893-2.691c0.162-2.158-1.64-3.767-3.401-5.169
							c-0.282-0.225-0.564-0.444-0.836-0.66c-0.25-0.198-0.506-0.414-0.622-0.711c-0.313-0.802,1.023-2.59,1.056-3.649
							c0.056-1.844-1.184-3.878-2.558-5.01c-1.901-1.567-4.65-2.033-6.961-1.18c-1.008,0.372-2.091,0.98-3.085,0.572
							c-1.45-0.595-1.206-2.35-2.44-3.225c-1.096-0.778-2.726-0.925-3.835-0.096c-0.512,0.383-0.907,0.915-1.453,1.248
							c-1.226,0.746-2.796,0.293-4.227,0.401c-1.562,0.118-3.051,0.979-3.933,2.272c-0.675,0.99-1.022,2.224-1.916,3.022
							c-0.964,0.861-2.346,1.026-3.521,1.564c-3.04,1.392-4.296,5.626-2.611,8.513c1.685,2.887,5.858,3.911,8.754,2.24
							C397.21,168.529,397.796,168.04,398.378,167.545z"/>
						<path style="fill:#D6906F;" d="M419.457,172.458c0.781,1.016,1.213,2.334,1.112,3.712c-0.107,1.461-0.951,2.883-2.255,3.55
							c-5.768,2.952-10.66-7.193-3.935-9.029C416.43,170.131,418.316,170.972,419.457,172.458z"/>
						<path style="fill:none;stroke:#000000;stroke-width:0.5;stroke-miterlimit:10;" d="M447.444,245.791
							c-2.215-4.385-5.824-9.187-7.928-13.682"/>
						<path style="fill:#D6906F;" d="M427.291,278.095c-9.76,1.164-20.52,2.429-29.907-0.34c10.222-15.52,12.839-6.57,27.478-9.353
							c57.59-27.757,63.314,4.927,46.599,7.79C456.29,276.695,442.403,276.064,427.291,278.095z"/>
						<path style="fill:#D6906F;" d="M353.451,199.088c-0.071,0.477,0.018,0.979,0.262,1.396c-1.05,0.344-1.528,1.813-0.882,2.71
							c0.052,0.072,0.111,0.146,0.114,0.234c0.004,0.108-0.077,0.198-0.144,0.283c-1.448,1.872,2.252,4.581,3.343,5.61
							c1.504,1.418,3.326,2.287,5.412,2.53c1.83,8.122,3.469,16.198,4.925,24.391c1.625,9.145,3.864,21.123,14.776,22.947
							c1.325,0.221,3.114,0.508,4.437,0.205c8.938-2.046,1.164-20.677-0.58-25.268c-2.543-6.691-5.573-13.198-8.839-19.564
							c-1.547-3.015-3.155-5.999-4.831-8.944c-0.748-1.315-1.452-2.711-2.299-3.964c-1.147-1.695-2.491-3.066-3.145-5.097
							c-0.238-0.739-0.398-1.502-0.473-2.275c-0.13-1.348-0.009-2.706,0.131-4.053c0.022-0.215,0.04-0.451-0.086-0.626
							c-0.168-0.233-0.529-0.245-0.777-0.102c-0.248,0.143-0.408,0.398-0.55,0.647c-0.916,1.604-1.525,3.382-1.785,5.211
							c-0.053,0.374-0.087,0.723-0.237,1.064c-1.778-1.064-5.622-4.712-7.114-1.261c-0.296,0.685-0.266,1.503,0.081,2.164
							c-0.673,0.113-1.278,0.573-1.567,1.191C353.537,198.698,353.48,198.891,353.451,199.088z"/>
						<path style="fill:none;stroke:#000000;stroke-width:0.5;stroke-miterlimit:10;" d="M397.957,223.775
							c0.964,5.262,0.915,13.402,1.47,19.902"/>
						<polygon style="fill:#5B7799;" points="354.798,209.922 354.14,214.305 356.548,210.596 						"/>
						<path style="fill:none;stroke:#000000;stroke-width:0.5;stroke-miterlimit:10;" d="M452.269,258.484
							c3.786,0.381,7.515,1.329,11.024,2.802"/>
						<path style="fill:none;stroke:#000000;stroke-width:3;stroke-miterlimit:10;" d="M366.377,182.556
							c-2.694,7.038-8.066,20.97-10.76,28.008"/>
						<path style="fill:none;stroke:#000000;stroke-miterlimit:10;" d="M401.601,183.909c1.514-0.157,2.968-0.84,4.055-1.905"/>
						<g>
							<defs>
								<path id="SVGID_00000093896522891685141180000012577904655534708152_" d="M416.147,160.873
									c14.524,8.12,1.562,29.892,13.652,35.814c-6.874,2.563-14.458,3.192-21.661,1.795c0.308,0.06,0.123-4.586,0.094-4.894
									c-0.312-3.213-2.642-3.103-5.095-3.971c-1.522-0.538-2.771-1.683-3.703-3.001c-2.913-4.121-3.885-9.813-4.522-14.716
									c-0.507-3.902,0.005-7.684,2.909-10.578c1.713-1.707,3.448-1.671,5.5-2.648c2.238-1.066,3.808-1.117,6.258-0.531
									C411.887,158.695,414.082,159.719,416.147,160.873z"/>
							</defs>
							<clipPath id="SVGID_00000005264524263894588880000015237757682996061370_">
								<use xlink:href="#SVGID_00000093896522891685141180000012577904655534708152_"  style="overflow:visible;"/>
							</clipPath>
							<g style="clip-path:url(#SVGID_00000005264524263894588880000015237757682996061370_);">
								<path d="M405.833,190.882c-0.025-0.075-0.044-0.158-0.071-0.23c2.294-0.266,4.739-0.851,6.621-2.049
									c-0.846,1.713-3.467,4.318-5.463,6.249C406.884,194.343,406.684,192.088,405.833,190.882z"/>
							</g>
						</g>
						<path style="fill:none;stroke:#000000;stroke-width:0.5;stroke-miterlimit:10;" d="M418.709,174.714
							c-0.85-1.586-2.937-2.381-4.627-1.762c-0.697,0.255-1.358,0.788-1.491,1.518"/>
						<path style="fill:none;stroke:#000000;stroke-width:0.5;stroke-miterlimit:10;" d="M415.054,172.869
							c1.163,0.48,1.782,1.98,1.294,3.141"/>
						<path style="fill:#D6906F;" d="M356.65,193.746c2.178,0.085,4.33,0.771,6.156,1.961c0.386,0.252,0.793,0.583,0.832,1.043
							c0.066,0.779-0.903,1.191-1.681,1.273c-1.168,0.124-2.357,0.059-3.505-0.19c-0.843-0.183-1.715-0.501-2.238-1.186
							c-0.524-0.686-0.52-1.824,0.202-2.296"/>
						<path style="fill:#D6906F;" d="M362.213,202.03c-0.335,2.262-1.116,7.383-3.689,7.417c-0.475,0.006-0.931-0.177-1.37-0.358
							c-0.639-0.263-1.279-0.525-1.918-0.788c-0.315-0.129-0.633-0.26-0.914-0.454c-1.227-0.844-1.403-2.628-0.991-4.059
							c0.426-1.48,1.677-5.166,3.467-5.429c0.403-0.059,0.811,0.04,1.207,0.139c0.99,0.247,1.979,0.493,2.969,0.74
							c0.307,0.076,0.624,0.158,0.87,0.356c0.566,0.457,0.539,1.316,0.429,2.036C362.255,201.751,362.235,201.885,362.213,202.03z"
							/>
						<path style="fill:none;stroke:#000000;stroke-width:3;stroke-miterlimit:10;" d="M495.348,263.9
							c-43.152-18.494-97.09,22.209-74.361,63.535"/>
						<path style="fill:none;stroke:#000000;stroke-width:0.5;stroke-miterlimit:10;" d="M362.871,195.494
							c0.264,0.275,0.676,0.379,0.916,0.675c0.376,0.464,0.139,1.207-0.334,1.571c-0.473,0.364-1.097,0.451-1.689,0.525"/>
						<path style="fill:none;stroke:#000000;stroke-width:0.5;stroke-miterlimit:10;" d="M358.185,209.152
							c0.545,0.167,1.104,0.287,1.67,0.359c0.641,0.082,1.426,0.033,1.743-0.531c0.369-0.657-0.187-1.435-0.707-1.98
							c0.831-0.01,1.804-0.228,2.133-0.991c0.233-0.541,0.039-1.19-0.333-1.647c-0.371-0.457-0.892-0.763-1.402-1.059
							c0.859-0.097,1.811-0.257,2.339-0.943c0.335-0.436,0.43-1.046,0.243-1.563c-0.187-0.517-0.651-0.925-1.187-1.045"/>
					</g>
					<line style="fill:none;stroke:#000000;stroke-miterlimit:10;" x1="496.408" y1="279.081" x2="508.448" y2="410.309"/>
					<rect x="319.988" y="274.474" style="fill:#ADACA5;" width="184.058" height="6.11"/>
					<g>
						<path d="M348.605,274.576h78.331c1.03,0,1.865-0.835,1.865-1.865l0,0c0-1.03-0.835-1.865-1.865-1.865h-78.331
							c-1.03,0-1.865,0.835-1.865,1.865l0,0C346.74,273.741,347.575,274.576,348.605,274.576z"/>
						<path d="M346.483,274.576h70.125l-6.102-40.296c-0.212-1.399-1.4-2.443-2.779-2.443h-64.567c-1.667,0-2.921,1.503-2.665,3.193
							L346.483,274.576z"/>
						<path style="fill:none;stroke:#6BA7B3;stroke-miterlimit:10;" d="M371.793,250.331c0,1.854,1.503,3.357,3.357,3.357
							c1.854,0,3.357-1.503,3.357-3.357c0-1.854-1.503-3.357-3.357-3.357C373.296,246.974,371.793,248.477,371.793,250.331z"/>
					</g>
				</g>
				<g>
					<path d="M118.414,176.782c0.461,1.328,0.489,2.839,1.301,3.987c0.385,0.545,0.923,0.967,1.315,1.506
						c0.899,1.235,0.916,2.881,0.898,4.408c-0.007,0.555-0.016,1.124-0.221,1.64c-0.201,0.505-0.578,0.923-1.001,1.264
						c-1.657,1.332-3.953,1.53-6.073,1.361c-1.716-0.137-3.453-0.491-4.929-1.376s-2.665-2.367-2.874-4.076
						c-0.285-2.335,1.25-4.51,3-6.081c1.542-1.385,3.153-2.916,4.762-4.197C116.112,174.009,117.777,174.945,118.414,176.782z"/>
					
						<line style="fill:none;stroke:#000000;stroke-width:4;stroke-miterlimit:10;" x1="115.59" y1="335.371" x2="115.59" y2="409.515"/>
					
						<line style="fill:none;stroke:#000000;stroke-width:5;stroke-miterlimit:10;" x1="141.747" y1="408.781" x2="89.432" y2="408.781"/>
					<path style="fill:#D98C73;" d="M194.087,358.493c3.551-2.589,5.404-3.679,8.675-6.616
						c6.483,17.444,19.854,45.951,21.637,51.003c-4.717,2.384-7.894,5.631-12.854,7.534c-12.927-14.345-16.298-25.71-30.61-42.845
						C185.402,364.667,189.781,361.631,194.087,358.493z"/>
					<path style="fill:#70A1BD;" d="M107.182,349.845c-15.472-1.57-29.198-7.899-40.433-18.587
						c-11.796-11.222-16.793-29.118-20.356-44.551c-3.161-13.694-5.297-27.849-3.511-41.789c1.786-13.94,7.87-27.754,18.788-36.602
						c4.295-3.48,9.503-6.198,15.03-6.212c5.603-0.014,10.936,2.784,14.992,6.649c4.056,3.865,6.994,8.74,9.67,13.662
						c5.887,10.829,10.785,22.421,15.55,33.69c4.406,10.421,8.578,21.536,16.952,29.516c9.792,12.001,23.961,17.138,36.795,24.467
						C207.955,355.581,131.775,356.532,107.182,349.845z"/>
					<path style="fill:#F2B430;" d="M73.952,301.813c-0.414-1.525-0.926-3.037-1.627-4.518c-1.041-2.201-2.446-4.451-2.144-6.867
						c0.312-2.498,2.375-4.396,4.473-5.789c5.56-3.694,16.67-7.609,23.307-5.166c2.338,0.861,4.224,2.598,6.226,4.081
						c18.756,13.886,44.684,7.086,65.406,15.715c16.429,6.841,25.945,24.118,32.107,39.829
						c5.535,14.111,12.997,26.982,17.779,41.365c-9.229,3.433-20.758,8.253-29.986,11.687c-0.696,0.259-1.424,0.522-2.162,0.441
						c-1.69-0.186-2.638-1.988-3.292-3.557c-6.42-15.405-12.839-30.81-19.259-46.216c-4.91-11.782-22.744-7.343-33.471-7.891
						c-9.467-0.484-20.436-0.068-29.644-2.639c-8.168-2.283-16.674-6.029-21.917-12.994
						C75.696,313.91,75.566,307.757,73.952,301.813z"/>
					<path style="fill:#E8654B;" d="M70.991,298.26c0.562,1.637,0.886,2.751,1.366,3.535c89.475-2.157,43.466-24.68,62.214-72.104
						c3.189-5.711,3.901-12.155-0.87-18.957c-23.977-22.01-57.309-9.262-60.87,22.916C59.531,267.863,62.719,275.54,70.991,298.26z"
						/>
					<path d="M226.722,398.796c50.939-5.071,6.991,12.791-10.73,17.189c-3.893,0.334-6.112-5.886-9.235-9.758
						C222.752,404.586,216.516,388.626,226.722,398.796z"/>
					<path style="fill:#F2B430;" d="M211.906,327.128c0.791-11.24-0.233-23.044-6.59-32.26
						c-8.804-12.763-25.377-17.315-40.726-19.508c-9.249-1.322-19.585-2.022-28.363,1.82c-9.527,4.171-13.286,13.792-21.845,19.176
						c17.733,3.663,31.667,17.646,44.562,29.393c5.92,5.393,11.599,10.626,18.729,14.258c9.593,4.886,16.844,14.678,24.404,22.456
						c5.977-9.908,8.584-21.514,9.642-33.037C211.789,328.664,211.852,327.897,211.906,327.128z"/>
					<path style="fill:#E8654B;" d="M73.909,212.7c-13.579,21.941-33.379,99.667,13.311,62.026
						c6.344-23.34,11.597-49.186,7.48-73.511C85.829,202.534,79.09,206.779,73.909,212.7z"/>
					<path style="fill:none;stroke:#131834;stroke-width:0.5;stroke-miterlimit:10;" d="M94.876,230.178
						c-11.276,4.911-7.117,34.481-12.197,42.346"/>
					<path style="fill:none;stroke:#000000;stroke-width:3;stroke-miterlimit:10;" d="M46.861,291.39
						c79.199-21.011,98.491,33.061,78.611,60.356"/>
					<g>
						<defs>
							<path id="SVGID_00000065074975288853034910000010678525448367762347_" d="M107.182,349.845
								C27.646,342.814,29.16,215.38,73.445,219.219c45.622,1.879,37.442,44.155,60.338,66.311
								c16.538,18.789,31.3,19.382,49.694,27.716c7.447,4.121,9.178,10.802,4.922,19.622
								C174.812,359.741,124.54,352.57,107.182,349.845z"/>
						</defs>
						<clipPath id="SVGID_00000115472746555006924370000006663451768759555000_">
							<use xlink:href="#SVGID_00000065074975288853034910000010678525448367762347_"  style="overflow:visible;"/>
						</clipPath>
					</g>
					<path style="fill:none;stroke:#131834;stroke-width:0.5;stroke-miterlimit:10;" d="M163.607,297.674
						c-13.054-1.986-21.454-0.247-38.26-0.247"/>
					<path style="fill:#D6906F;" d="M84.425,264.756c39.424,13.753,57.297,2.863,55.989,17.282
						c-24.91,0.571-51.179,4.058-76.848,3.115C44.677,269.9,72.105,261.36,84.425,264.756z"/>
					<line style="fill:none;stroke:#000000;stroke-miterlimit:10;" x1="42.665" y1="284.403" x2="29.149" y2="414.162"/>
					<path style="fill:#C98B77;" d="M174.81,274.71c-0.075,0-0.149,0-0.224,0"/>
					<path style="fill:#D6906F;" d="M171.507,174.602c2.673-5.491,6.188-10.438,9.307-15.666c0.278,0,2.13-3.309,2.424-3.788
						c0.913-1.487,1.622-3.095,2.566-4.574c1.883-2.948,4.103-5.68,6.607-8.123c0.527-0.515,1.107-1.038,1.83-1.184
						c0.479,0.639,0.113,1.541-0.263,2.245c-0.943,1.766-2.861,4.09-3.073,6.106c0.445-0.036,0.905-0.071,1.33,0.066
						c0.425,0.137,0.813,0.492,0.846,0.938c0.02,0.271-0.067,0.604,0.147,0.771c0.175,0.137,0.427,0.054,0.649,0.045
						c0.53-0.021,0.981,0.443,1.129,0.952c0.148,0.51,0.065,1.054-0.019,1.579c0.532-0.177,1.093,0.332,1.185,0.885
						c0.091,0.553-0.143,1.103-0.384,1.609c-1.085,2.279-2.663,5.293-5.111,6.402c-0.192,0.087-0.398,0.164-0.543,0.317
						c-0.09,0.095-0.151,0.213-0.21,0.331c-2.027,4.046-2.76,8.639-4.033,12.956c-1.384,4.693-2.89,9.35-4.29,14.038
						c-1.89,6.331-3.941,12.94-8.614,17.611c-2.758,2.757-6.598,4.729-10.468,4.252c-3.16-0.389-6.168-2.805-6.948-5.947
						c-0.899-3.621,1.406-5.533,3.349-8.487C163.781,190.539,167.641,182.547,171.507,174.602z"/>
					<rect x="35.496" y="281.008" style="fill:#ADACA5;" width="178.31" height="6.104"/>
					<g>
						<path d="M189.128,281.011h-83.585c-0.842,0-1.525-0.683-1.525-1.525v-0.888c0-0.842,0.683-1.525,1.525-1.525h83.585
							c0.842,0,1.525,0.683,1.525,1.525v0.888C190.653,280.328,189.97,281.011,189.128,281.011z"/>
						<path d="M190.923,281.011H116.89l6.442-42.541c0.224-1.477,1.478-2.579,2.934-2.579h68.165c1.76,0,3.084,1.587,2.814,3.371
							L190.923,281.011z"/>
						<g>
							<line style="fill:none;stroke:#6BA7B3;stroke-miterlimit:10;" x1="163.571" y1="257.144" x2="166.782" y2="259.814"/>
							
								<line style="fill:none;stroke:#131834;stroke-width:0.5;stroke-miterlimit:10;" x1="159.351" y1="257.144" x2="162.562" y2="259.814"/>
							<line style="fill:none;stroke:#6BA7B3;stroke-miterlimit:10;" x1="155.13" y1="257.144" x2="158.342" y2="259.814"/>
						</g>
					</g>
					<path style="fill:#E8654B;" d="M166.665,197.291c-0.3-0.441-0.633-0.858-1.015-1.232c-4.141-4.051-12.022-2.1-16.919-0.869
						c-6.292,1.582-12.891,3.998-19.342,4.693c-1.62,0.174-15.194,0.783-15.193,0.776c-0.184,1.439-0.285,2.889-0.309,4.339
						c0.458,6.109,1.448,12.18,2.441,18.221c1.019,6.199,1.077,8.354,7.551,7.068c10.568-2.099,20.216-6.418,30.517-9.092
						c3.242-0.842,6.516-1.695,9.487-3.242c1.679-0.874,3.274-1.991,4.406-3.508c1.609-2.157,2.151-4.98,1.898-7.659
						c-0.253-2.678-1.244-5.237-2.458-7.638C167.407,198.512,167.065,197.88,166.665,197.291z"/>
					<g id="XMLID_13_">
						<g id="XMLID_17_">
							<path style="fill:#D6906F;" d="M116.753,169.95c-0.505-1.661-1.166-3.278-2.006-4.798c-0.421-0.763-7.281,0.442-8.231,0.605
								c-2.454,0.422-4.925,1.107-7.078,2.392c-4.728,2.821-6.573,8.052-5.069,13.272c0.674,2.339,1.668,4.634,1.986,7.025
								c0.727,0.717,1.47,1.419,2.277,2.043c0.497,0.203,0.893,0.571,1.231,0.979c0.174,0.211,0.276,0.558,0.289,0.871
								c1.578,0.334,3.174,0.609,4.692,1.106c1.562,0.512,2.599,1.294,4.318,0.956c2.757-0.541,4.929-2.652,6.29-5.008
								C118.743,183.699,118.616,176.079,116.753,169.95z"/>
						</g>
					</g>
					<g id="XMLID_11_">
						<g id="XMLID_12_">
							<path style="fill:#D6906F;" d="M101.589,209.133c2.87,0.617,6.123,0.449,8.761-0.731c2.421-1.083,4.458-3.132,5.239-5.666
								c-1.377,0.052-2.657-0.869-3.359-2.056c-0.702-1.186-0.913-2.598-0.976-3.975c-0.05-1.1-0.013-2.204,0.109-3.298
								c0.088-0.788,0.811-2.523,0.616-3.227c-0.354-1.279-3.486-2.214-4.717-2.699c-1.941-0.763-3.956-1.338-6.008-1.714
								c-0.518-0.095-5.631-0.438-5.656-0.521c1.246,4.053,1.482,8.413,0.681,12.577c-0.15,0.781-0.345,1.576-0.795,2.231
								c-0.999,1.454-2.938,1.846-4.681,2.119c2.258,3.205,5.733,5.438,9.474,6.613
								C100.702,208.921,101.141,209.037,101.589,209.133z"/>
						</g>
					</g>
					<path d="M84.21,186.598c0.447,1.794,1.851,3.218,3.437,4.167c2.353,1.409,5.377,1.923,7.87,0.779
						c1.77-0.812,3.504-3.117,3.759-5.078c0.086-0.658,0.017-1.332,0.131-1.986c0.152-0.875,0.643-1.686,1.346-2.228
						c0.756-0.582,1.779-0.905,2.221-1.75c0.58-1.111,0.239-2.671,1.423-3.38c1.223-0.733,2.748-0.289,3.957-1.401
						c0.917-0.843,1.415-2.144,2.518-2.723c1.926-1.011,4.249,0.79,6.388,0.399c0.976-0.178,1.819-0.807,2.479-1.548
						c1.445-1.621,2.137-4.082,1.158-6.02c-0.604-1.195-1.737-2.031-2.908-2.679c-1.084-0.6-2.262-1.084-3.498-1.167
						c-2.602-0.174-4.469,1.667-7.195,1.262c-2.495-0.371-5.068,0.414-7.181,1.791c-1.776,1.158-3.074,2.688-4.454,4.262
						c-1.341,1.53-2.761,0.773-4.458,1.708c-1.169,0.645-2.08,1.8-2.325,3.124c-0.171,0.924-0.05,1.878-0.163,2.81
						c-0.024,0.2-0.062,0.405-0.173,0.572c-0.15,0.225-0.407,0.347-0.646,0.474C85.325,179.35,83.512,183.801,84.21,186.598z"/>
					<path style="fill:#D6906F;" d="M95.201,185.278c1.352,3.802,8.516,2.893,7.254-2.686
						C101.103,178.791,93.939,179.7,95.201,185.278z"/>
					<path style="fill:none;stroke:#131834;stroke-width:0.5;stroke-miterlimit:10;" d="M101.056,182.978
						c-0.536-0.842-1.524-1.377-2.522-1.366c-0.998,0.011-1.974,0.567-2.492,1.421"/>
					<path style="fill:none;stroke:#131834;stroke-width:0.5;stroke-miterlimit:10;" d="M99.082,181.72
						c-0.691,0.269-1.232,0.894-1.399,1.617c-0.167,0.723,0.046,1.522,0.55,2.066"/>
					<path style="fill:#FFFFFF;" d="M109.436,185.847c0.354,1.211,1.444,2.174,2.689,2.378c1.245,0.203,2.585-0.363,3.306-1.399"/>
					<g>
						<defs>
							<path id="SVGID_00000016072403337882035680000003179362648412810155_" d="M101.589,209.133
								c2.87,0.617,6.123,0.449,8.761-0.731c2.421-1.083,4.458-3.132,5.239-5.666c-1.377,0.052-2.657-0.869-3.359-2.056
								c-0.702-1.186-0.913-2.598-0.976-3.975c-0.05-1.1-0.013-2.204,0.109-3.298c0.088-0.788,0.811-2.523,0.616-3.227
								c-0.354-1.279-3.486-2.214-4.717-2.699c-1.941-0.763-3.956-1.338-6.008-1.714c-0.518-0.095-5.631-0.438-5.656-0.521
								c1.246,4.053,1.482,8.413,0.681,12.577c-0.15,0.781-0.345,1.576-0.795,2.231c-0.999,1.454-2.938,1.846-4.681,2.119
								c2.258,3.205,5.733,5.438,9.474,6.613C100.702,208.921,101.141,209.037,101.589,209.133z"/>
						</defs>
						<clipPath id="SVGID_00000158015354396483699420000005794729400089438374_">
							<use xlink:href="#SVGID_00000016072403337882035680000003179362648412810155_"  style="overflow:visible;"/>
						</clipPath>
						<path style="clip-path:url(#SVGID_00000158015354396483699420000005794729400089438374_);" d="M114.055,192.258
							c-2.52,1.61-5.819,1.93-8.6,0.834c0.177,0.702,0.84,1.161,1.484,1.492c2.478,1.271,5.436,1.574,8.12,0.833"/>
					</g>
				</g>
				<g>
					<g>
						
							<line style="fill:none;stroke:#000000;stroke-width:4;stroke-miterlimit:10;" x1="223.368" y1="411.198" x2="223.368" y2="477.715"/>
						
							<line style="fill:none;stroke:#000000;stroke-width:4;stroke-miterlimit:10;" x1="192.725" y1="476.22" x2="252.516" y2="476.22"/>
					</g>
					<path style="fill:#D6906F;" d="M254.758,258.231c-0.061,0.164-0.115,0.331-0.163,0.502c-1.459,5.236,7.527,8.247,11.093,9.982
						c1.178,0.573,2.455,1.116,3.755,0.947c1.633-0.212,2.898-1.481,4.028-2.679c3.707-3.928,7.414-7.856,11.121-11.784
						c7.653-8.109,15.409-16.362,20.5-26.281c1.429-2.783,3.121-8.321,1.409-11.304c-3.562-6.206-5.777-2.149-9.302,0.348
						c-13.797,9.773-26.04,23.948-38.552,35.382C257.096,254.762,255.48,256.281,254.758,258.231z"/>
					<path style="fill:#F2B430;" d="M244.307,260.32c-5.951,2.237-11.902,4.474-17.854,6.71c-3.29,1.237-6.677,2.533-9.221,4.959
						c-5.101,4.865-5.483,16.702,1.272,20.491c7.931,4.448,23.858-0.025,31.587-3.056c5.307-2.082,10.35-4.996,14.529-8.901
						c1.924-1.798,3.986-3.846,5.718-5.739c1.082-1.183,2.938-6.799,3.35-7.073c0.84-0.559,1.982-0.361,2.885-0.797
						c0.568-0.275,1.427-0.881,1.903-1.307c0.52-0.466,0.861-1.201,0.664-1.871c-0.036-0.123-0.09-0.251-0.055-0.375
						c0.081-0.292,0.496-0.255,0.798-0.228c1.154,0.103,2.147-0.97,2.367-2.108c0.611-3.172-1.932-7.606-3.585-10.164
						c-1.541-2.383-3.349-5.088-5.597-6.876c-1.32-1.05-2.492-2.615-4.312-2.732c-1.36-0.088-2.745,0.59-3.51,1.719
						c-0.826,1.22-0.902,2.781-1.343,4.188c-0.127,0.404-0.33,0.843-0.732,0.977c-0.281,0.094-0.585,0.01-0.879-0.025
						c-1.223-0.147-1.781,0.59-2.763,1.041c-1.136,0.522-2.288,0.536-3.036,1.717c-0.5,0.789-0.559,1.77-0.857,2.656
						C254.132,258.009,248.07,258.905,244.307,260.32z"/>
					<g>
						<path d="M273.153,321.329h82.501c0.417,0,0.777-0.293,0.861-0.702l9.793-47.57c0.112-0.545-0.304-1.056-0.861-1.056h-82.501
							c-0.417,0-0.777,0.293-0.861,0.702l-9.793,47.569C272.18,320.818,272.597,321.329,273.153,321.329z"/>
						<path style="fill:#5B7799;" d="M276.654,320.264h75.62c0.364,0,0.679-0.256,0.753-0.612l8.978-43.005
							c0.1-0.478-0.265-0.927-0.753-0.927h-75.62c-0.365,0-0.679,0.256-0.753,0.612l-8.978,43.005
							C275.801,319.815,276.165,320.264,276.654,320.264z"/>
						<path d="M358.001,325.075H254.235c-1.115,0-2.019-0.877-2.019-1.959l0,0c0-1.082,0.904-1.959,2.02-1.959H358
							c1.115,0,2.019,0.877,2.019,1.959l0,0C360.02,324.198,359.116,325.075,358.001,325.075z"/>
						<rect x="294.108" y="321.032" width="17.365" height="1.574"/>
					</g>
					<g>
						<g>
							<path style="opacity:0.65;fill:#F9FBFC;" d="M350.272,302.235c-0.308-0.814-0.748-1.575-1.327-2.239
								c-0.87-0.998-2.071-1.778-3.418-1.873c0.3-0.294,0.197-1.164,0.31-1.656c0.578-2.507-0.532-5.317-2.668-6.753
								c-1.984-1.333-4.451-1.303-6.567-0.339c-1.435,0.654-1.531-1.949-1.939-2.866c-0.725-1.628-1.729-3.169-3.163-4.258
								c-2.079-1.579-4.87-2.04-7.443-1.599c-2.572,0.441-4.943,1.715-7.015,3.303c-2.783-17.245-2.166-35.254-3.578-52.671
								c-0.047-0.574-0.103-1.177-0.426-1.654c-0.366-0.542-1.005-0.822-1.609-1.074c-1.642-0.685-3.284-1.37-4.926-2.055
								c-0.516-0.215-1.09-0.433-1.619-0.25c-0.803,0.279-1.035,1.283-1.143,2.127c-1.001,7.831-3.125,15.941-3.125,23.815
								c0.039,3.563-0.599,7.27-0.919,10.82c-0.642,7.131-1.358,14.255-2.147,21.371c0.124-1.115-2.81-2.685-3.612-2.993
								c-1.695-0.652-3.652-0.425-5.261,0.382c-2.792,1.4-4.904,4.188-5.313,7.306c-0.549-0.539-1.408-0.587-2.175-0.524
								c-3.782,0.311-7.335,2.657-9.107,6.013c-1.838,3.482-2.234,8.445-1.028,12.171c0.824,2.546,2.536,4.854,4.9,6.109
								c2.167,1.15,4.772,1.357,7.158,0.785c1.069-0.257,2.098-0.664,3.066-1.184c0.836-0.449,1.67-1.387,2.52-1.714
								c1.117-0.429,1.109,0.405,1.852,1.394c0.555,0.739,1.185,1.42,1.867,2.043c0.67,0.612,1.391,1.167,2.15,1.664
								c1.361,0.89,2.846,1.591,4.394,2.089c1.498,0.482,3.106,0.927,4.672,1.069c3.481,0.315,6.975-0.566,10.177-1.876
								c0.865-0.354,1.722-0.756,2.485-1.301c0.792-0.566,1.193-1.267,1.778-1.99c1.278,0.933,2.348,1.769,3.937,2.159
								c1.418,0.347,2.931,0.366,4.346-0.006c1.006-0.264,2.081-0.839,2.861-1.529c0.228-0.202,2.103-2.445,1.987-2.583
								c4.939,5.866,15.369,4.057,18.68-2.608C350.958,307.1,351.114,304.465,350.272,302.235z"/>
							<path style="fill:#F9FBFC;" d="M338.649,299.968c1.6-1.913,2.062-4.772,0.949-7.046c-0.994-2.033-2.964-3.422-5.215-3.642
								c-0.952-0.093-1.975,0.006-2.87,0.38c-0.193-0.738-0.5-1.445-0.933-2.099c-1.456-2.202-4.126-3.571-6.714-3.797
								c-2.565-0.223-5.072,0.828-6.72,2.802c-0.758,0.907-1.462,2.044-1.678,3.22c-0.063,0.34-0.072,0.645-0.051,0.931
								c-0.338-0.128-0.689-0.231-1.085-0.263c-1.151-0.094-2.333,0.26-3.244,0.969c0.106-2.168-0.1-4.229-0.1-6.388
								c0.014-3.843,0.067-7.686,0.09-11.529c0.092-15.228-0.155-30.374-1.04-45.585c-0.031-0.54-0.077-1.117-0.409-1.544
								c-0.255-0.327-0.643-0.518-1.017-0.697c-1.126-0.54-2.252-1.08-3.378-1.62c-0.239-0.115-0.515-0.231-0.76-0.129
								c-0.31,0.129-0.391,0.523-0.428,0.856c-1.013,8.955-1.51,18.005-2.677,26.879c-1.198,9.109-2.747,18.152-4.178,27.226
								c-2.362-3.065-8.121-2.269-11.022,0.332c-2.71,2.431-2.725,6.461-1.259,9.855c-1.255,0.845-2.998,1.56-3.898,2.563
								c-1.489,1.658-2.547,3.711-2.931,5.913c-0.831,4.768,1.541,9.933,5.699,12.41c4.158,2.477,9.83,2.103,13.627-0.898
								c0.676,4.591,4.916,8.392,9.553,8.566c2.356,0.088,4.687-0.77,6.529-2.219c0.789-0.62,2.526-2.299,3.216-3.799
								c2.972,4.417,11.659,4.593,16.164,3.138c6.454-2.084,8.53-9.25,5.432-14.421
								C338.418,300.214,338.539,300.101,338.649,299.968z"/>
							<path style="opacity:0.66;fill:#F9FBFC;" d="M266.256,300.927c0.182,0.131,0.394,0.231,0.605,0.296
								c-0.266,0.237-0.358,0.622-0.323,0.976c0.121,1.231,1.659,2.086,2.794,2.168c1.958,0.142,3.264-2.326,1.999-3.878
								c-0.554-0.68-1.567-0.941-2.38-0.613c0.589-0.238-0.66-1.527-0.929-1.616c-0.743-0.248-1.635,0.375-2.019,0.964
								c-0.178,0.273-0.307,0.597-0.264,0.92C265.782,300.468,265.986,300.732,266.256,300.927z"/>
							<path style="fill:none;stroke:#131834;stroke-width:0.5;stroke-miterlimit:10;" d="M343.544,283.036
								c0,1.064-0.862,1.926-1.926,1.926c-1.064,0-1.926-0.862-1.926-1.926c0-1.064,0.862-1.927,1.926-1.927
								C342.682,281.109,343.544,281.972,343.544,283.036z"/>
							<path style="fill:none;stroke:#131834;stroke-width:0.5;stroke-miterlimit:10;" d="M346.884,287.402
								c0,0.497-0.402,0.899-0.899,0.899c-0.497,0-0.899-0.402-0.899-0.899c0-0.496,0.402-0.899,0.899-0.899
								C346.481,286.504,346.884,286.906,346.884,287.402z"/>
							<path style="fill:none;stroke:#131834;stroke-width:0.5;stroke-miterlimit:10;" d="M318.116,300.631
								c0,1.844-1.495,3.339-3.339,3.339s-3.339-1.495-3.339-3.339s1.495-3.339,3.339-3.339S318.116,298.787,318.116,300.631z"/>
							<path style="fill:none;stroke:#131834;stroke-width:0.5;stroke-miterlimit:10;" d="M348.168,305.383
								c0,0.497-0.402,0.899-0.899,0.899c-0.497,0-0.899-0.402-0.899-0.899c0-0.496,0.402-0.899,0.899-0.899
								C347.766,304.484,348.168,304.886,348.168,305.383z"/>
							<path style="fill:none;stroke:#131834;stroke-width:0.5;stroke-miterlimit:10;" d="M284.981,306.539
								c-2.412,0-4.367-1.955-4.367-4.367s1.955-4.367,4.367-4.367"/>
							<circle style="fill:none;stroke:#131834;stroke-width:0.5;stroke-miterlimit:10;" cx="290.375" cy="308.593" r="0.771"/>
							<path style="fill:none;stroke:#131834;stroke-width:0.5;stroke-miterlimit:10;" d="M328.133,287.531
								c0,1.135-0.92,2.055-2.055,2.055c-1.135,0-2.055-0.92-2.055-2.055c0-1.135,0.92-2.055,2.055-2.055
								C327.213,285.476,328.133,286.396,328.133,287.531z"/>
							<path style="fill:none;stroke:#131834;stroke-width:0.5;stroke-miterlimit:10;" d="M311.437,306.795
								c0,1.986-1.61,3.596-3.596,3.596c-1.986,0-3.596-1.61-3.596-3.596"/>
							<path style="fill:none;stroke:#131834;stroke-width:0.5;stroke-miterlimit:10;" d="M286.506,282.127
								c-0.883,1.443-1.087,3.283-0.542,4.884c0.544,1.602,1.827,2.936,3.406,3.542"/>
							
								<line style="fill:none;stroke:#131834;stroke-width:0.5;stroke-miterlimit:10;" x1="309.382" y1="249.516" x2="309.382" y2="292.411"/>
							
								<line style="fill:none;stroke:#131834;stroke-width:0.5;stroke-miterlimit:10;" x1="305.53" y1="243.094" x2="303.988" y2="270.065"/>
						</g>
						<line style="fill:none;stroke:#000000;stroke-miterlimit:10;" x1="480.467" y1="455.294" x2="463.423" y2="327.787"/>
						<line style="fill:none;stroke:#000000;stroke-miterlimit:10;" x1="253.793" y1="326.961" x2="235.326" y2="456.041"/>
						<rect x="232.697" y="324.907" style="fill:#ADACA5;" width="245.15" height="6.708"/>
						<path style="fill:#447CA8;" d="M240.199,419.57c-3.812,0.345-7.582,0.525-11.251,0.497
							c-13.115-0.1-26.756-4.952-38.428-10.771c-33.235-16.569-31.764-51.249-33.122-83.619
							c-0.431-10.278-0.854-20.665,1.157-30.765c3.852-19.344,16.711-32.22,36.953-32.699c2.299-0.054,4.707,0.097,6.692,1.26
							c2.07,1.213,3.408,3.375,4.331,5.589c4.662,11.19,1.588,24.552,3.546,36.327c2.209,13.284,6.365,26.758,13.87,38.05
							c4.256,6.403,9.535,11.276,15.706,15.767c6.552,4.769,15.808,4.127,23.628,4.948c5.318,0.559,10.921,1.704,15.489,4.633
							c11.44,7.339,22.344,27.737,9.112,38.423c-3.898,3.148-8.832,4.671-13.674,5.957
							C263.549,415.999,251.683,418.531,240.199,419.57z"/>
						<g>
							<path style="fill:#1C6652;" d="M445.102,297.604c1.249-0.492,2.526-0.909,3.818-1.279
								c0.655-8.613-3.038-18.115-11.246-14.211c0.156,0.695,0.357,1.384,0.518,2.073c0.185,0.791,0.327,1.589,0.311,2.404
								c-0.009,0.433-0.063,0.863-0.169,1.283c-0.129,0.508-0.249,0.898-0.778,1.068c-0.195,0.062-0.474-0.015-0.603-0.176
								c-1.179-1.476-1.514-3.316-1.732-5.161c-0.463,0.336-0.935,0.697-1.422,1.111c-7.975,6.793-13.669,15.904-17.4,25.904
								c-2.401,6.437-3.977,13.175-4.843,19.986c-0.683,5.371-2.136,13.122-0.554,18.42c0.38,1.271,1.328,2.458,2.625,2.735
								c1.297,0.277,2.831-0.687,2.827-2.013c0.303,3.44,4.139,2.861,5.82,1.034c13.024-14.155,22.122-31.877,26.064-50.702
								c-3.02,1.368-6.111,2.521-9.468,2.884c-0.507,0.055-0.962-0.548-0.598-0.987
								C440.017,299.871,442.603,298.589,445.102,297.604z M424.843,319.321c-2.317,3.65-4.107-2.699-4.468-4.122
								c-0.255-1.008-1.3-3.515-0.435-4.356c0.458-0.446,1.181-0.539,1.793-0.354c0.612,0.185,1.124,0.611,1.548,1.09
								c1.227,1.387,1.808,3.247,1.984,5.09C425.351,317.578,425.332,318.551,424.843,319.321z"/>
							<path style="fill:#1C6652;" d="M410.527,358.198c-3.22-9.397-8.976-17.679-14.661-25.825
								c-4.299-6.16-10.4-11.435-18.48-9.476c-2.705,0.656-5.114,2.145-6.58,4.526c-2.687,4.365-1.459,10.101,0.824,14.69
								c4.05,8.143,12.086,15.792,19.123,21.422c0.138,0.11,0.29,0.202,0.43,0.309c-0.021-0.016,1.906-0.639,2.042-0.664
								c1.013-0.194,2.039-0.318,3.07-0.372c0.435-0.022,0.906-0.022,1.26,0.231c1.426,1.02-1.517,1.993-2.126,2.169
								c-0.224,0.064-1.475,0.526-1.687,0.393c1.999,1.25,4.087,2.388,6.033,3.729c1.024,0.705,2.072,1.423,3.27,1.756
								c1.198,0.333,2.594,0.219,3.526-0.604c2.083-1.84-1.063-3.438,2.131-4.364c1.463-0.424,2.4-1.942,2.578-3.454
								C411.458,361.152,411.021,359.639,410.527,358.198z M376.237,332.342c-0.554-0.282-1.084-0.624-1.598-0.961
								c-0.211-0.138-0.443-0.309-0.466-0.56c-0.021-0.219,0.138-0.425,0.335-0.524c0.197-0.099,0.425-0.111,0.646-0.111
								c1.428,0,2.975,0.408,4.064,1.346c0.259,0.223,0.274,0.666,0.143,0.951c-0.144,0.313-0.46,0.516-0.808,0.509
								C377.725,332.975,376.96,332.71,376.237,332.342z M393.478,352.109c-0.21,0.243-0.607,0.363-0.929,0.269
								c-0.013,0.003-0.021,0.011-0.034,0.014c-1.737,0.3-3.568-0.166-5.227-0.665c-1.744-0.525-3.505-1.193-5.057-2.16
								c-0.656-0.409-0.595-1.283,0.112-1.6c1.792-0.802,3.861-0.676,5.713-0.154c1.985,0.559,3.885,1.59,5.332,3.07
								C393.716,351.219,393.807,351.727,393.478,352.109z M397.41,342.306c-0.108,1.414-1.003,2.77-1.752,4.033
								c-0.349,0.011-0.535-0.404-0.598-0.748c-0.194-1.068-0.095-2.184,0.262-3.208c0.072-0.207,1.387-2.477,1.484-2.33
								C397.309,340.817,397.467,341.569,397.41,342.306z M408.967,361.157c-0.291,0.736-0.7,1.425-1.209,2.031
								c-0.05,0.06-0.112,0.123-0.19,0.123c-0.058,0-0.11-0.037-0.155-0.075c-0.434-0.366-0.656-0.941-0.678-1.508
								c-0.022-0.567,0.138-1.128,0.364-1.648c0.301-0.694,1.811-1.954,2.189-0.586c0.077,0.278,0.019,0.574-0.055,0.853
								C409.16,360.621,409.071,360.892,408.967,361.157z"/>
							<path style="fill:#E3AE3D;" d="M395.19,342.299c-0.007,0.036-0.014,0.072-0.022,0.108c0,0,0,0,0-0.001
								c-0.007,0.034-0.013,0.064-0.023,0.114c0.008-0.038,0.015-0.076,0.023-0.114c-0.01,0.044-0.019,0.088-0.029,0.133
								C395.157,342.459,395.173,342.379,395.19,342.299z"/>
							<path style="fill:#1C6652;" d="M462.435,336.844c-0.755,0.293-1.529,0.601-2.355,0.607c-0.127,0.001-0.268-0.007-0.36-0.095
								c-0.079-0.076-0.1-0.193-0.107-0.303c-0.064-1.023,0.799-1.896,1.744-2.291c0.757-0.316,3.091-0.238,3.583-0.789
								c0.658-0.737-0.265-2.619-0.909-3.135c-1.106-0.885-2.715-0.595-4.078-0.211c-2.548,0.717-5.036,1.615-7.454,2.666
								c-0.084,0.037,0.635,6.435,0.362,7.198c-0.378,1.057-2.398,2.438-3.322,1.06c-0.235-0.351-0.229-0.804-0.215-1.226
								c0.057-1.712,0.254-3.503,0.126-5.198c-6.75,2.942-12.649,7.531-17.606,13.06c-1.211,1.35-3.79,3.576-3.76,5.47
								c0.018,1.14,0.863,2.513,1.028,3.701c0.185,1.33,0.174,2.686-0.045,4.011c-0.05,0.304-0.153,0.657-0.445,0.755
								c-0.47,0.158-0.796-0.466-0.889-0.953c-0.384-1.993-0.481-3.996-0.698-5.999c-4.301,4.308-6.598,11.357-7.967,17.148
								c-0.328,1.39-2.616,7.206-1.16,8.108c0.591,0.366,9.922-3.641,11.415-4.01c7.902-1.95,15.484-6.188,20.944-12.865
								c3.345-4.091,6.462-8.396,9.02-13.027c2.068-3.743,5.617-9.821,5.273-14.212C463.849,336.3,463.15,336.566,462.435,336.844z
								 M444.246,346.313c-0.144,2.206-1.546,4.989-2.31,6.056c-0.25,0.35-0.772,0.7-1.046,0.369
								c-0.089-0.107-0.109-0.253-0.123-0.391c-0.064-0.626-0.06-1.751,0.066-2.053c-0.177-2.042-0.555-4.586,1.04-6.195
								c0.374-0.377,0.978-0.664,1.419-0.367C444.077,344.261,444.317,345.216,444.246,346.313z M457.243,349.164
								c-2.155,1.233-4.52,2.611-7.019,2.897c-0.842,0.096-3.091,0.201-3.476-0.887c-0.459-1.298,1.753-2.55,2.657-2.978
								c2.372-1.121,4.998-1.701,7.622-1.681c0.589,0.004,1.287,0.106,1.55,0.633c0.367,0.737-0.434,1.502-1.149,1.91
								C457.367,349.093,457.305,349.128,457.243,349.164z"/>
							<path style="fill:none;stroke:#1C0C03;stroke-width:0.5;stroke-miterlimit:10;" d="M442.679,355.509
								c-5.312,4.71-10.624,9.42-15.935,14.13c-2.816,2.497-5.678,5.049-7.69,8.378c-3.263,5.399-3.927,12.185-4.497,18.669"/>
							<path style="fill:none;stroke:#1C0C03;stroke-width:0.5;stroke-miterlimit:10;" d="M397.383,349.947
								c6.856,10.651,13.455,22.312,14.319,35.398c0.496,7.515-0.941,15.174,0.422,22.553"/>
							<path style="fill:none;stroke:#1C0C03;stroke-width:0.5;stroke-miterlimit:10;" d="M433.922,303.317
								c-5.002,11.181-17.414,42.717-19.311,55.036c-0.997,6.471-1.096,13.068-1.193,19.633c-0.12,8.167-0.24,16.333-0.36,24.5"/>
							<g>
								<g>
									<path style="fill:#447CA8;" d="M399.683,421.18c0,0,29.603,0.18,29.618,0l3.123-30.489h-37.25
										C395.174,390.691,399.676,421.121,399.683,421.18z"/>
								</g>
							</g>
						</g>
						<path style="fill:#DE9983;" d="M408.864,444.406c2.73-3.456,5.697-6.925,9.247-9.591c-1.28-1.139-2.621-2.277-3.824-3.463
							c-7.336-7.226-14.042-14.681-21.923-21.176c-0.128,0.253-1.552,3.547-1.68,3.801c-3.21,6.396-5.671,10.072-8.534,16.627
							c8.106,6.53,16.965,11.399,25.321,15.624C407.933,445.62,408.39,445.007,408.864,444.406z"/>
						<path d="M441.462,415.715c-0.001-0.007-0.001-0.013-0.002-0.02c-0.139-1.534-1.321-2.849-2.829-3.165
							c-2.184-0.458-3.968,1.074-5.5,2.504c-3.061,1.829-5.842,5.452-8.459,7.893c-2.215,2.067-4.607,5.729-7.303,7.064
							c-1.011,0.5-2.258,0.657-3.254,0.128c-0.341-0.181-11.073,14.074-10.042,15.184c3.239,3.488,9.741,6.37,13.306,7.726
							c1.076,0.409,2.294,0.01,2.916-0.958c4.036-6.282,7.938-12.651,11.749-19.072c2.077-3.499,4.141-7.008,6.157-10.542
							C439.25,420.617,441.651,417.935,441.462,415.715z"/>
						<path style="fill:#E8654B;" d="M382.56,448.567c5.121-4.891,8.37-9.427,11.099-15.817c3.157-7.392,4.797-15.743,9.514-22.093
							c0.739-0.995,0.378-2.412-0.765-2.893c-8.083-3.4-31.22-18.043-34.126-19.726c-12.097-7.006-24.225-13.792-36.886-19.629
							c-10.781-4.97-19.787-11.355-31.725-14.181c-12.189-2.885-24.814-3.568-37.3-3.545c-8.229,0.015-16.457,0.279-24.67,0.79
							c-7.564,0.471-26.127,0.601-26.819,11.364c-0.179,2.781,2.254,14.271,3.706,16.164c1.436,1.871,8.242,3.531,10.373,4.675
							c3.438,1.846,6.598,3.094,10.464,3.966c7.098,1.602,14.365,1.914,21.557,2.837c13.086,1.678,26.324,3.008,38.938,7.067
							c15.929,5.125,30.542,14.964,44.253,24.31c13.109,8.935,29.682,19.237,41.552,28.767
							C382.301,450.137,382.007,449.096,382.56,448.567z"/>
						<path style="fill:none;stroke:#2C2A27;stroke-width:5;stroke-miterlimit:10;" d="M219.708,415.204"/>
						<path style="fill:#D6906F;" d="M211.109,240.036c0.024-0.238,0.047-0.475,0.069-0.713c0.52-5.488,0.031-10.457,2.65-15.396
							c2.453-4.626,9.605-11.289,15.437-10.464c5.145,0.728,8.168,8.905,9.729,13.016c1.577,4.153,2.946,10.123,1.17,14.437
							c-1.576,3.827-8.298,3.406-8.432,7.84c-0.21,6.985-0.42,13.97-0.631,20.954c-0.035,1.144-0.077,2.323-0.555,3.364
							c-2.064,4.491-16.263,1.496-19.595-0.637c-5.88-3.763-3.952-9.561-2.612-15.44
							C209.614,251.409,210.539,245.74,211.109,240.036z"/>
						<path style="fill:#F2B430;" d="M237.457,344.347c1.189-3.025,2.434-6.009,3.749-9.007c1.515-3.455,3.348-6.734,3.921-10.442
							c0.747-4.837-0.828-9.676-0.091-14.487c0.329-2.146,1.167-4.182,1.598-6.31c0.952-4.696-0.14-9.635-2.251-13.937
							c-2.506-5.105-8.18-9.158-9.296-14.595c-0.763-3.715,3.098-3.324,4.477-5.558c2.036-3.297-0.347-7.214-4.084-8.271
							c-11.055-3.126-23.809-6.377-33.691,1.299c-5.14,3.993-8.717,9.692-11.335,15.65c-5.623,12.796-5.981,28.003-12.556,40.26
							c-6.243,11.637-5.837,27.358-5.056,40.406c0.225,3.761,0.605,7.57,1.972,11.081c1.579,4.058,4.388,7.498,7.152,10.863
							c2.094,2.55,4.283,5.176,7.25,6.62c2.886,1.404,6.253,1.541,9.42,1.02c7.629-1.258,13.955-6.022,19.271-11.385
							c5.322-5.369,11.913-10.263,16.242-16.451c2.024-2.893,3.666-6.023,5.501-9.042c0.114-0.187,0.23-0.417,0.135-0.614
							c-0.104-0.215-0.389-0.25-0.628-0.258c-0.656-0.02-1.311-0.04-1.967-0.061c0.38-0.455,0.419-1.163,0.089-1.656
							c-0.33-0.493-0.999-0.728-1.565-0.551C236.282,347.383,236.863,345.86,237.457,344.347z"/>
						<path style="fill:#DE9983;" d="M355.753,462.745c-2.27-10.044-3.308-20.126-4.222-30.297
							c-0.271,0.087-0.544,0.161-0.815,0.249c-6.807,2.209-13.502,4.724-20.179,7.292c3.191,10.232,6.762,20.469,9.936,30.136
							c0.405,1.233,1.535,2.471,1.949,3.701c0.708,2.106-1.126,2.958,0.807,4.054c1.558,0.883,3.469,0.786,5.247,0.571
							C357.343,477.378,357.444,470.225,355.753,462.745z"/>
						<path d="M385.154,470.053c0.057-0.067,0.111-0.136,0.162-0.209c0.872-1.24,0.893-2.957,0.014-4.193
							c-1.235-1.736-3.508-1.922-5.544-2.005c-3.452-0.893-7.984-0.328-11.56-0.474c-3.027-0.124-7.314,0.746-10.158-0.234
							c-1.066-0.367-2.054-1.145-2.377-2.226c-0.111-0.37-17.227,4.125-16.967,6.831c0.529,5.51,1.876,8.857,3.223,12.151
							c0.295,0.721,1.065,1.132,1.828,0.972c7.52-1.577,15.005-3.32,22.462-5.172c3.949-0.98,7.896-1.977,11.828-3.025
							C380.111,471.923,383.706,471.748,385.154,470.053z"/>
						<path style="fill:#E8654B;" d="M316.165,458.914c3.392-0.214,6.765-0.691,10.096-1.393
							c12.934-2.727,25.002-8.371,36.839-14.322c-0.654-1.755-1.305-3.511-1.964-5.263c-11.776-31.281-20.915-61.556-43.108-87.381
							c-3.966-4.615-8.771-9.327-14.841-9.759c-2.748-0.195-5.47,0.529-8.121,1.274c-20.602,5.795-40.232,16.269-60.942,20.719
							c-5.598,1.203-12.957,3.453-18.336,5.414c-3.51,1.279-5.696,3.898-9.432,4.751c-5.27,1.203-11.4,0.816-16.716,0.172
							c-1.893-0.229-14.997-1.852-15.369-3.852c2.16,11.609,7.603,23.057,17.108,30.064c14.191,10.461,34.115,8.421,50.606,6.507
							c4.753-0.552,55.747-9.558,55.002-12.72c3.956,16.779,9.063,33.623,13.986,50.051
							C312.557,448.468,314.221,453.743,316.165,458.914z"/>
						<path d="M230.281,203.882c-2.079,0.298-4.018,1.281-5.829,2.363c-6.23,3.724-11.611,8.86-15.622,14.91
							c-1.229,1.854-2.369,3.942-2.229,6.162c0.147,2.335,1.169,5.008,1.634,7.286c0.36,1.766,1.367,3.665,2.26,5.215
							c1.635,2.839,4.353,5.824,7.932,4.336c2.32-0.965,3.565-2.909,5.161-4.704c1.319-1.484,2.78-2.64,3.643-4.506
							c1.614-3.49,0.916-10.462,4.501-12.64c1.072-0.651,2.377-0.816,3.482-1.41c1.105-0.594,2.017-1.96,1.429-3.069
							c-0.194-0.365-0.543-0.727-0.427-1.124c0.057-0.195,0.217-0.339,0.367-0.477c1.014-0.936,2.6-3.22,2.155-4.738
							c-0.309-1.053-2.917-2.085-3.801-1.088c1.276-1.44,2.622-2.952,1.368-4.684c-1.133-1.564-3.708-2.045-5.492-1.893
							C230.635,203.837,230.458,203.857,230.281,203.882z"/>
						<path style="fill:none;stroke:#131834;stroke-width:0.5;stroke-miterlimit:10;" d="M236.685,348.653
							c-0.728,1.519-2.183,2.545-3.631,3.405c-2.064,1.225-4.243,2.258-6.498,3.079"/>
						<path style="fill:none;stroke:#131834;stroke-width:0.5;stroke-miterlimit:10;" d="M232.052,355.289
							c-2.77,1.693-5.928,2.746-9.16,3.056"/>
						<g>
							<g>
								<path style="fill:#E8654B;" d="M328.633,251.607L328.633,251.607c0-6.401-5.189-11.59-11.59-11.59h-11.446
									c-6.401,0-11.59,5.189-11.59,11.59l0,0H328.633z"/>
								<path style="fill:#FFFFFF;" d="M327.815,241.816c5.472-10.518,8.901-25.591,8.901-42.337
									c0-31.789-26.899-57.559-26.899-57.559s-24.926,25.77-24.926,57.559c0,16.746,5.107,31.819,10.579,42.337H327.815z"/>
								<g>
									<defs>
										<path id="SVGID_00000001647254863507798980000015613270500180826753_" d="M327.815,241.816
											c5.472-10.518,8.901-25.591,8.901-42.337c0-31.789-26.899-57.559-26.899-57.559s-24.926,25.77-24.926,57.559
											c0,16.746,5.107,31.819,10.579,42.337H327.815z"/>
									</defs>
									<clipPath id="SVGID_00000058562313084642180100000018023887531307667881_">
										<use xlink:href="#SVGID_00000001647254863507798980000015613270500180826753_"  style="overflow:visible;"/>
									</clipPath>
									<path style="clip-path:url(#SVGID_00000058562313084642180100000018023887531307667881_);fill:#E8654B;" d="
										M317.277,149.855c-4.257-5.033-7.46-7.936-7.46-7.936s-2.985,2.901-6.949,7.936H317.277z"/>
								</g>
							</g>
							<g>
								<path style="fill:#F2B430;" d="M325.598,187.783c-0.127-8.186-7.087-14.664-15.363-14.087
									c-6.981,0.486-12.708,6.121-13.278,13.096c-0.41,5.024,1.761,9.537,5.315,12.392c2.178,1.75,3.66,4.218,3.994,6.992
									l0.927,7.72l8.925-0.139l0.687-7.747c0.245-2.767,1.624-5.282,3.74-7.082C323.694,196.249,325.667,192.24,325.598,187.783z"
									/>
								<path style="fill:none;stroke:#222540;stroke-width:0.5;stroke-miterlimit:10;" d="M309.404,208.902
									c-0.783-3.486-1.566-6.971-2.349-10.457c-0.725-3.229-2.219-6.588-2.543-9.841c-0.136-1.367,1.539-1.432,2.412-0.795
									c0.317,0.231,0.575,0.593,0.547,0.984s-0.447,0.747-0.812,0.604c-0.328-0.128-0.433-0.551-0.386-0.9
									c0.125-0.937,1.103-1.671,2.038-1.529c0.935,0.142,1.651,1.132,1.493,2.065c-0.076,0.446-0.575,0.915-0.924,0.628
									c-0.098-0.081-0.151-0.203-0.187-0.325c-0.259-0.874,0.291-1.88,1.138-2.218c0.847-0.338,1.879-0.036,2.486,0.644
									c0.24,0.27,0.426,0.611,0.418,0.972c-0.008,0.361-0.257,0.73-0.613,0.787c-0.459,0.074-0.867-0.407-0.855-0.871
									c0.011-0.464,0.325-0.871,0.689-1.16c0.709-0.562,1.737-0.791,2.538-0.371c0.801,0.42,1.178,1.586,0.617,2.295
									c-0.142,0.179-0.343,0.325-0.571,0.346c-0.606,0.055-0.93-0.756-0.785-1.347c0.234-0.955,1.219-1.666,2.199-1.586
									c2.828,0.229,1.429,3.535,1.144,5.174c-0.399,2.29-0.797,4.581-1.196,6.871c-0.561,3.224-1.122,6.448-1.684,9.673"/>
								<path style="fill:#1B2258;" d="M311.729,214.985c-1.946,0.114-4.439,0.298-5.326-1.681
									c-0.714-1.594-0.682-3.848-0.475-5.552c0.001-0.012,10.214-0.139,11.264-0.191c-0.147,0.007,0.01,3.776-0.051,4.137
									c-0.2,1.178-0.859,2.178-1.959,2.689c-0.986,0.458-2.101,0.524-3.186,0.583C311.908,214.975,311.819,214.98,311.729,214.985
									z"/>
							</g>
							<path style="fill:none;stroke:#F2B430;stroke-miterlimit:10;" d="M289.354,186.262c1.797,0.18,3.594,0.359,5.392,0.539"/>
							<path style="fill:none;stroke:#F2B430;stroke-miterlimit:10;" d="M292.95,176.048c0.939,0.924,2.085,1.638,3.329,2.073"/>
							<path style="fill:none;stroke:#F2B430;stroke-miterlimit:10;" d="M301.42,168.348c0.771,1.541,1.541,3.082,2.312,4.624"/>
							<path style="fill:none;stroke:#F2B430;stroke-miterlimit:10;" d="M311.928,165.782c0.175,1.798,0.35,3.595,0.525,5.393"/>
							<path style="fill:none;stroke:#F2B430;stroke-miterlimit:10;" d="M318.116,167.578c-0.591,1.49-1.022,3.043-1.284,4.624"/>
							<path style="fill:none;stroke:#F2B430;stroke-miterlimit:10;" d="M324.546,178.135c1.198-0.43,2.396-0.859,3.594-1.289"/>
							<path style="fill:none;stroke:#F2B430;stroke-miterlimit:10;" d="M327.876,187.356c1.202-0.103,2.421-0.016,3.596,0.257"/>
							<path style="fill:none;stroke:#F2B430;stroke-miterlimit:10;" d="M324.287,197.873c0.515,0.255,1.03,0.509,1.545,0.763"/>
							<path style="fill:none;stroke:#F2B430;stroke-miterlimit:10;" d="M297.824,197.887c-0.685,0.599-1.37,1.199-2.055,1.798"/>
						</g>
						<path style="fill:#D6906F;" d="M316.021,243.293c-3.183,3.988-7.381,7.556-10.763,11.053
							c-5.542,5.73-11.189,11.357-16.937,16.879c-5.568,5.348-9.768,15.728-0.336,20.161c3.656,1.718,8.122,0.818,11.538-1.34
							c3.415-2.158,5.978-5.407,8.379-8.655c5.75-7.777,10.99-15.93,15.678-24.389c3.734-6.739,10.062-15.309,11.319-22.992
							c0.531-3.246,1.582-6.84,0.804-10.118c-0.117-0.494-0.402-1.074-0.909-1.071c-0.313,0.002-0.57,0.236-0.793,0.457
							c-1.934,1.911-3.868,3.823-5.802,5.734c-0.654,0.646-2.379,3.398-3.456,3.14c-0.108-0.026-0.196-0.105-0.268-0.189
							c-0.552-0.636-0.482-1.583-0.381-2.419c0.117-0.964,0.233-1.927,0.35-2.893c0.076-0.627,0.192-1.963-0.326-2.424
							c-0.627-0.559-1.676-0.025-2.003,0.602c-0.371,0.711-0.297,1.559-0.339,2.36c-0.158,3.01-2.051,5.679-2.475,8.663
							c-0.173,1.215-0.11,2.616-0.73,3.717C317.845,240.855,316.979,242.093,316.021,243.293z"/>
						<path style="fill:none;stroke:#222540;stroke-width:0.5;stroke-miterlimit:10;" d="M335.977,226.125
							c-1.218,2.453-2.435,5.083-4.28,7.107"/>
						<path style="fill:none;stroke:#222540;stroke-width:0.5;stroke-miterlimit:10;" d="M335.55,230.728
							c-0.5,1.718-2.084,4.922-3.371,6.165"/>
						<path style="fill:none;stroke:#222540;stroke-width:0.5;stroke-miterlimit:10;" d="M335.366,223.309
							c0.08,0.668-0.271,1.304-0.609,1.885c-1.33,2.287-2.672,4.59-4.423,6.573"/>
						<path style="fill:#F2B430;" d="M214.325,286.476c-4.281-5.472-6.747-11.883-5.501-18.348c0.307-1.596,0.897-3.161,1.892-4.446
							c1.385-1.789,3.468-2.925,5.622-3.619c9.221-2.97,18.491,1.18,26.467,5.277c8.243,4.234,17.69,5.383,26.602,7.505
							c2.869,0.683,5.66-0.71,8.496-0.604c2.423,0.09,4.358-2.44,6.783-1.902c0.232,0.051,0.484,0.132,0.696,0.026
							c0.207-0.103,0.296-0.344,0.381-0.559c0.407-1.035,1.227-2.011,2.327-2.17c0.875-0.127,1.758,0.294,2.395,0.907
							c1.092,1.05,2.282,2.635,2.962,3.983c3.329,6.604,4.61,14.224,3.624,21.553c-0.305,2.265-1.504,5.061-3.785,4.914
							c-0.906-0.059-1.882-0.603-2.657-0.13c-0.349,0.213-0.558,0.589-0.811,0.909c-1.508,1.908-5.058,1.423-5.999-0.819
							c-11.235,8.697-32.931,4.946-45.72,2.615C230.131,300.116,220.4,294.242,214.325,286.476z"/>
						<circle style="fill:#D6906F;" cx="226.712" cy="233.077" r="5.407"/>
						<path style="fill:none;stroke:#222540;stroke-width:0.5;stroke-miterlimit:10;" d="M227.659,229.48
							c-1.234-0.327-2.626,0.015-3.567,0.878s-1.403,2.219-1.184,3.478"/>
						<path style="fill:none;stroke:#222540;stroke-width:0.5;stroke-miterlimit:10;" d="M224.235,230.27
							c-0.306,1.6,0.408,3.349,1.746,4.278"/>
						<path style="fill:none;stroke:#222540;stroke-miterlimit:10;" d="M236.115,234.682c1.086,1.063,2.901,1.285,4.212,0.515"/>
						<g>
							<defs>
								<path id="SVGID_00000050644686907132345040000004915154105795255946_" d="M211.109,240.036
									c0.024-0.238,0.047-0.475,0.069-0.713c0.52-5.488,0.031-10.457,2.65-15.396c2.453-4.626,9.605-11.289,15.437-10.464
									c5.145,0.728,8.168,8.905,9.729,13.016c1.577,4.153,2.946,10.123,1.17,14.437c-1.576,3.827-8.298,3.406-8.432,7.84
									c-0.21,6.985-0.42,13.97-0.631,20.954c-0.035,1.144-0.077,2.323-0.555,3.364c-2.064,4.491-16.263,1.496-19.595-0.637
									c-5.88-3.763-3.952-9.561-2.612-15.44C209.614,251.409,210.539,245.74,211.109,240.036z"/>
							</defs>
							<clipPath id="SVGID_00000176738883889737923860000013670624121847856537_">
								<use xlink:href="#SVGID_00000050644686907132345040000004915154105795255946_"  style="overflow:visible;"/>
							</clipPath>
							<path style="clip-path:url(#SVGID_00000176738883889737923860000013670624121847856537_);" d="M235.336,245.027
								c-3.431,1.977-7.505,2.819-11.439,2.364c0.087,0.653,0.766,1.036,1.375,1.287c4.922,2.024,10.61,2.115,15.594,0.25"/>
						</g>
						<path style="fill:none;stroke:#131834;stroke-width:0.5;stroke-miterlimit:10;" d="M290.943,297.684
							c0.36-2.909,0.204-5.88-0.459-8.735"/>
						<path style="fill:none;stroke:#131834;stroke-width:0.5;stroke-miterlimit:10;" d="M284.03,298.564
							c0.402-1.767,0.638-3.571,0.702-5.382"/>
						<path style="fill:none;stroke:#131834;stroke-width:0.5;stroke-miterlimit:10;" d="M292.09,290.863
							c-0.461-2.997-1.296-5.937-2.48-8.729"/>
						<path style="fill:none;stroke:#131834;stroke-width:0.5;stroke-miterlimit:10;" d="M298.33,397.83
							c-0.381-1.602-1.651-2.85-2.214-4.398c-0.615-1.688-0.335-3.554-0.048-5.328c0.408-2.521,0.816-5.041,1.224-7.562"/>
						<path style="fill:none;stroke:#131834;stroke-width:0.5;stroke-miterlimit:10;" d="M290.544,395.812
							c1.388-0.312,2.738-0.797,4.007-1.44c0.364-0.184,0.573-0.198,0.98-0.208"/>
					</g>
					<g>
						<defs>
							<path id="SVGID_00000176043627340017277750000016869324144887428236_" d="M237.457,344.347
								c1.189-3.025,2.434-6.009,3.749-9.007c1.515-3.455,3.348-6.734,3.921-10.442c0.747-4.837-0.828-9.676-0.091-14.487
								c0.329-2.146,1.167-4.182,1.598-6.31c0.952-4.696-0.14-9.635-2.251-13.937c-2.506-5.105-8.18-9.158-9.296-14.595
								c-0.763-3.715,3.098-3.324,4.477-5.558c2.036-3.297-0.347-7.214-4.084-8.271c-9.368-2.649-19.634-4.468-28.639-0.769
								c-8.675,3.563-14.68,11.717-18.482,20.29c-10.79,24.33-17.111,51.462-15.517,78.095c0.225,3.761,0.605,7.57,1.972,11.081
								c1.579,4.058,4.388,7.498,7.152,10.863c2.094,2.55,4.283,5.176,7.25,6.62c2.886,1.404,6.253,1.541,9.42,1.02
								c7.629-1.258,13.955-6.022,19.271-11.385c5.322-5.369,11.913-10.263,16.242-16.451c2.024-2.893,3.666-6.023,5.501-9.042
								c0.114-0.187,0.23-0.417,0.135-0.614c-0.104-0.215-0.389-0.25-0.628-0.258c-0.656-0.02-1.311-0.04-1.967-0.061
								c0.38-0.455,0.419-1.163,0.089-1.656c-0.33-0.493-0.999-0.728-1.565-0.551C236.282,347.383,236.863,345.86,237.457,344.347z"
								/>
						</defs>
						<clipPath id="SVGID_00000178187024047858064110000008135714921228403134_">
							<use xlink:href="#SVGID_00000176043627340017277750000016869324144887428236_"  style="overflow:visible;"/>
						</clipPath>
						<path style="clip-path:url(#SVGID_00000178187024047858064110000008135714921228403134_);" d="M250.51,302.588
							c-2.375-0.033-4.729-0.479-7.064-1.309c-1.569-0.557-3.081-1.249-4.566-1.999c-0.205-0.057-0.41-0.118-0.616-0.176
							c-0.128,0.354-0.202,0.768-0.196,1.267c0.055,4.519,9.072,7.755,12.49,8.873C250.437,307.027,250.429,304.806,250.51,302.588z
							"/>
					</g>
					<path style="fill:none;stroke:#131834;stroke-width:0.5;stroke-miterlimit:10;" d="M272.725,272.82
						c-12.268,0.863-24.375-3.465-35.15-9.392"/>
					<path style="fill:none;stroke:#131834;stroke-width:0.5;stroke-miterlimit:10;" d="M360.166,435.686
						c-4.341-11.705-8.844-23.35-13.507-34.93c-4.136-10.27-10.555-23.004-16.415-32.407"/>
					<path style="fill:none;stroke:#131834;stroke-width:0.5;stroke-miterlimit:10;" d="M233.839,362.484
						c2.269,0.116,4.168-1.63,6.327-2.335c1.049-0.342,2.159-0.436,3.251-0.597c2.944-0.433,5.813-1.369,8.446-2.757
						c5.806-3.059,12.335-2.804,18.086-5.649"/>
					<path style="fill:none;stroke:#000000;stroke-width:3;stroke-miterlimit:10;" d="M158.072,346.746
						c11.549-6.153,24.886-9.861,38.188-9.016c13.302,0.845,27.264,6.004,34.4,16.485c15.754,23.139,9.492,53.636,1.769,65.096"/>
					<path style="fill:none;stroke:#131834;stroke-width:0.5;stroke-miterlimit:10;" d="M279.173,262.633
						c-0.668-1.081-1.337-2.161-2.005-3.241"/>
					<path style="fill:none;stroke:#131834;stroke-width:0.5;stroke-miterlimit:10;" d="M264.725,247.918
						c1.749,1.108,3.138,2.773,3.915,4.692"/>
					<path style="fill:none;stroke:#131834;stroke-width:0.5;stroke-miterlimit:10;" d="M261.612,249.25
						c1.325,0.902,2.65,1.804,3.975,2.707"/>
				</g>
				<g>
					
						<ellipse transform="matrix(0.7071 -0.7071 0.7071 0.7071 7.9415 253.7424)" style="fill:#F2B430;" cx="310.265" cy="117.285" rx="9.777" ry="9.777"/>
					<g>
						<path style="fill:#FFFFFF;" d="M309.694,122.677c-0.051,0.01-0.091,0.015-0.121,0.015c-0.03,0-0.061,0-0.091,0
							c-0.314,0-0.597-0.01-0.85-0.03c-0.253-0.02-0.488-0.051-0.706-0.091c-0.217-0.041-0.427-0.091-0.629-0.152
							c-0.202-0.061-0.41-0.126-0.622-0.197c0.02-0.222,0.063-0.448,0.129-0.675c0.066-0.228,0.139-0.448,0.22-0.66
							c0.344,0.111,0.698,0.21,1.062,0.296c0.364,0.086,0.804,0.129,1.32,0.129c0.829,0,1.446-0.162,1.851-0.486
							c0.404-0.324,0.607-0.769,0.607-1.335c0-0.283-0.043-0.521-0.129-0.713c-0.086-0.192-0.215-0.359-0.387-0.501
							c-0.172-0.141-0.389-0.27-0.652-0.387c-0.263-0.116-0.571-0.25-0.925-0.402l-0.728-0.303c-0.303-0.122-0.582-0.258-0.834-0.41
							c-0.253-0.152-0.473-0.331-0.66-0.539c-0.187-0.207-0.332-0.453-0.432-0.736c-0.101-0.283-0.152-0.622-0.152-1.017
							c0-0.779,0.235-1.416,0.706-1.912c0.47-0.495,1.145-0.804,2.025-0.925v-1.472c0.152-0.04,0.323-0.061,0.516-0.061
							c0.202,0,0.384,0.02,0.546,0.061v1.411c0.425,0.02,0.842,0.066,1.252,0.136c0.41,0.071,0.761,0.162,1.055,0.273
							c-0.051,0.425-0.162,0.845-0.334,1.259c-0.273-0.101-0.587-0.19-0.941-0.265c-0.354-0.076-0.764-0.114-1.229-0.114
							c-0.637,0-1.128,0.121-1.472,0.364c-0.344,0.243-0.516,0.617-0.516,1.123c0,0.243,0.046,0.453,0.137,0.63
							c0.091,0.177,0.225,0.334,0.402,0.47c0.177,0.137,0.389,0.261,0.637,0.372c0.248,0.111,0.528,0.233,0.842,0.364l0.577,0.243
							c0.364,0.152,0.693,0.309,0.986,0.47c0.293,0.162,0.544,0.354,0.751,0.577c0.207,0.223,0.369,0.485,0.486,0.789
							c0.116,0.303,0.175,0.673,0.175,1.108c0,0.86-0.245,1.56-0.736,2.101c-0.491,0.541-1.181,0.898-2.071,1.07v1.745
							c-0.081,0.02-0.167,0.035-0.258,0.046c-0.091,0.01-0.177,0.015-0.258,0.015c-0.091,0-0.182-0.005-0.273-0.015
							c-0.091-0.01-0.182-0.025-0.273-0.046V122.677z"/>
					</g>
				</g>
				<g>
					
						<ellipse transform="matrix(0.2298 -0.9732 0.9732 0.2298 151.1098 371.5072)" style="fill:#F2B430;" cx="310.265" cy="90.286" rx="9.777" ry="9.777"/>
					<g>
						<path style="fill:#FFFFFF;" d="M309.694,95.678c-0.051,0.01-0.091,0.015-0.121,0.015c-0.03,0-0.061,0-0.091,0
							c-0.314,0-0.597-0.01-0.85-0.03c-0.253-0.02-0.488-0.051-0.706-0.091c-0.217-0.041-0.427-0.091-0.629-0.152
							c-0.202-0.061-0.41-0.126-0.622-0.197c0.02-0.222,0.063-0.448,0.129-0.675c0.066-0.228,0.139-0.447,0.22-0.66
							c0.344,0.111,0.698,0.21,1.062,0.296c0.364,0.086,0.804,0.129,1.32,0.129c0.829,0,1.446-0.162,1.851-0.485
							c0.404-0.324,0.607-0.769,0.607-1.335c0-0.283-0.043-0.521-0.129-0.713c-0.086-0.192-0.215-0.359-0.387-0.501
							c-0.172-0.142-0.389-0.271-0.652-0.387c-0.263-0.116-0.571-0.25-0.925-0.402l-0.728-0.303
							c-0.303-0.121-0.582-0.258-0.834-0.41c-0.253-0.152-0.473-0.331-0.66-0.539c-0.187-0.207-0.332-0.452-0.432-0.736
							c-0.101-0.283-0.152-0.622-0.152-1.017c0-0.779,0.235-1.416,0.706-1.912c0.47-0.495,1.145-0.804,2.025-0.925v-1.472
							c0.152-0.04,0.323-0.061,0.516-0.061c0.202,0,0.384,0.021,0.546,0.061v1.411c0.425,0.02,0.842,0.066,1.252,0.136
							c0.41,0.071,0.761,0.162,1.055,0.273c-0.051,0.425-0.162,0.845-0.334,1.259c-0.273-0.101-0.587-0.19-0.941-0.266
							c-0.354-0.076-0.764-0.114-1.229-0.114c-0.637,0-1.128,0.121-1.472,0.364c-0.344,0.243-0.516,0.617-0.516,1.123
							c0,0.243,0.046,0.453,0.137,0.63c0.091,0.177,0.225,0.334,0.402,0.47c0.177,0.137,0.389,0.261,0.637,0.372
							c0.248,0.111,0.528,0.233,0.842,0.364l0.577,0.243c0.364,0.152,0.693,0.309,0.986,0.47c0.293,0.162,0.544,0.354,0.751,0.576
							c0.207,0.223,0.369,0.486,0.486,0.789c0.116,0.303,0.175,0.673,0.175,1.108c0,0.86-0.245,1.56-0.736,2.101
							c-0.491,0.541-1.181,0.898-2.071,1.07v1.745c-0.081,0.02-0.167,0.035-0.258,0.046c-0.091,0.01-0.177,0.015-0.258,0.015
							c-0.091,0-0.182-0.005-0.273-0.015c-0.091-0.01-0.182-0.025-0.273-0.046V95.678z"/>
					</g>
				</g>
				<g>
					
						<ellipse transform="matrix(0.2298 -0.9732 0.9732 0.2298 177.3867 350.7112)" style="fill:#F2B430;" cx="310.265" cy="63.287" rx="9.777" ry="9.777"/>
					<g>
						<path style="fill:#FFFFFF;" d="M309.694,68.679c-0.051,0.01-0.091,0.015-0.121,0.015c-0.03,0-0.061,0-0.091,0
							c-0.314,0-0.597-0.01-0.85-0.03c-0.253-0.02-0.488-0.051-0.706-0.091c-0.217-0.041-0.427-0.091-0.629-0.152
							c-0.202-0.061-0.41-0.126-0.622-0.197c0.02-0.222,0.063-0.448,0.129-0.675c0.066-0.228,0.139-0.448,0.22-0.66
							c0.344,0.111,0.698,0.21,1.062,0.296c0.364,0.086,0.804,0.129,1.32,0.129c0.829,0,1.446-0.162,1.851-0.486
							c0.404-0.324,0.607-0.769,0.607-1.335c0-0.283-0.043-0.521-0.129-0.713c-0.086-0.192-0.215-0.359-0.387-0.501
							c-0.172-0.141-0.389-0.27-0.652-0.387c-0.263-0.116-0.571-0.25-0.925-0.402l-0.728-0.303c-0.303-0.121-0.582-0.258-0.834-0.41
							c-0.253-0.152-0.473-0.331-0.66-0.539c-0.187-0.207-0.332-0.453-0.432-0.736c-0.101-0.283-0.152-0.622-0.152-1.017
							c0-0.779,0.235-1.416,0.706-1.912c0.47-0.495,1.145-0.804,2.025-0.925v-1.472c0.152-0.04,0.323-0.061,0.516-0.061
							c0.202,0,0.384,0.02,0.546,0.061v1.411c0.425,0.02,0.842,0.066,1.252,0.136c0.41,0.071,0.761,0.162,1.055,0.273
							c-0.051,0.425-0.162,0.845-0.334,1.259c-0.273-0.101-0.587-0.19-0.941-0.266c-0.354-0.076-0.764-0.114-1.229-0.114
							c-0.637,0-1.128,0.121-1.472,0.364c-0.344,0.243-0.516,0.617-0.516,1.123c0,0.243,0.046,0.453,0.137,0.63
							c0.091,0.177,0.225,0.334,0.402,0.47c0.177,0.136,0.389,0.261,0.637,0.372c0.248,0.111,0.528,0.233,0.842,0.364l0.577,0.243
							c0.364,0.152,0.693,0.309,0.986,0.47c0.293,0.162,0.544,0.354,0.751,0.577c0.207,0.223,0.369,0.486,0.486,0.789
							c0.116,0.304,0.175,0.673,0.175,1.108c0,0.86-0.245,1.56-0.736,2.101c-0.491,0.541-1.181,0.898-2.071,1.07v1.745
							c-0.081,0.02-0.167,0.035-0.258,0.046c-0.091,0.01-0.177,0.015-0.258,0.015c-0.091,0-0.182-0.005-0.273-0.015
							c-0.091-0.01-0.182-0.025-0.273-0.046V68.679z"/>
					</g>
				</g>
				<g>
					<polygon style="fill:#70A1BD;" points="374.948,66.36 430.998,65.723 400.973,102.884 388.183,82.291 382.422,89.488 
						382.101,74.515 					"/>
					<g>
						<defs>
							<polygon id="SVGID_00000117674625951084708250000006973726997509032372_" points="374.948,66.36 430.998,65.723 
								403.723,103.055 388.183,82.291 382.422,89.488 382.101,74.515 							"/>
						</defs>
						<clipPath id="SVGID_00000128450783815814314510000000124204698725827237_">
							<use xlink:href="#SVGID_00000117674625951084708250000006973726997509032372_"  style="overflow:visible;"/>
						</clipPath>
						<polygon style="clip-path:url(#SVGID_00000128450783815814314510000000124204698725827237_);" points="421.816,70.103 
							388.183,82.291 383.486,96.692 375.366,88.998 382.101,74.515 						"/>
					</g>
				</g>
				<path style="fill:#FFFFFF;" d="M486.993,86.565c-21.279,0-38.529,17.25-38.529,38.529c0,21.279,17.25,38.529,38.529,38.529
					c21.279,0,38.529-17.25,38.529-38.529C525.522,103.815,508.272,86.565,486.993,86.565z M486.993,148.899
					c-13.147,0-23.805-10.658-23.805-23.805s10.658-23.805,23.805-23.805c13.147,0,23.805,10.658,23.805,23.805
					S500.141,148.899,486.993,148.899z"/>
				<path style="fill:#FFFFFF;" d="M85.402,57.386c-15.746,0-28.511,12.765-28.511,28.511c0,15.746,12.765,28.512,28.511,28.512
					c15.746,0,28.511-12.765,28.511-28.512C113.913,70.151,101.148,57.386,85.402,57.386z M85.402,103.513
					c-9.729,0-17.616-7.887-17.616-17.616c0-9.729,7.887-17.616,17.616-17.616s17.616,7.887,17.616,17.616
					C103.017,95.626,95.131,103.513,85.402,103.513z"/>
				<g>
					<path style="fill:#FFFFFF;" d="M57.661,122.114c-15.746,0-28.511,12.765-28.511,28.511c0,15.747,12.765,28.511,28.511,28.511
						s28.511-12.765,28.511-28.511C86.172,134.879,73.407,122.114,57.661,122.114z M57.661,168.241
						c-9.729,0-17.616-7.887-17.616-17.616c0-9.729,7.887-17.616,17.616-17.616c9.729,0,17.616,7.887,17.616,17.616
						C75.277,160.354,67.39,168.241,57.661,168.241z"/>
					<path style="fill:#FFFFFF;" d="M57.661,128.279c-12.342,0-22.347,10.005-22.347,22.347c0,12.342,10.005,22.347,22.347,22.347
						c12.342,0,22.347-10.005,22.347-22.347C80.008,138.284,70.003,128.279,57.661,128.279z M57.661,164.432
						c-7.625,0-13.807-6.182-13.807-13.807c0-7.625,6.182-13.807,13.807-13.807S71.468,143,71.468,150.625
						C71.468,158.251,65.286,164.432,57.661,164.432z"/>
				</g>
				<g>
					<path style="fill:#FFFFFF;" d="M353.562,18.857c-11.065,0-20.035,8.97-20.035,20.035c0,11.065,8.97,20.035,20.035,20.035
						s20.035-8.97,20.035-20.035C373.597,27.827,364.627,18.857,353.562,18.857z M353.562,51.271
						c-6.837,0-12.379-5.542-12.379-12.379c0-6.837,5.542-12.379,12.379-12.379c6.837,0,12.379,5.542,12.379,12.379
						C365.941,45.728,360.399,51.271,353.562,51.271z"/>
					<path style="fill:#FFFFFF;" d="M353.562,23.189c-8.673,0-15.703,7.031-15.703,15.703c0,8.673,7.03,15.703,15.703,15.703
						c8.673,0,15.703-7.03,15.703-15.703C369.265,30.219,362.235,23.189,353.562,23.189z M353.562,48.594
						c-5.358,0-9.702-4.344-9.702-9.702c0-5.358,4.344-9.702,9.702-9.702c5.358,0,9.702,4.344,9.702,9.702
						C363.264,44.25,358.92,48.594,353.562,48.594z"/>
				</g>
				<g>
					<defs>
						<path id="SVGID_00000085939878423682765160000000235158731396765619_" d="M523.105,228.423
							c-0.238,45.577,1.383,93.307-14.202,136.872c-16.299,45.561-53.241,70.984-98.819,84.473
							c-71.246,21.085-143.081,15.005-215.486,5.515c-37.707-4.942-77.147-11.828-106.838-35.591
							c-51.414-41.148-54.483-114.465-57.006-174.829c-2.848-68.135,8.133-143.069,68.37-184.885
							c34.698-24.087,76.736-28.713,117.912-30.71c50.365-2.444,100.903-1.33,151.112,3.331
							c39.344,3.652,80.456,10.069,107.204,41.21c24.736,28.799,38.738,65.88,44.329,103.107
							C522.241,193.979,523.195,211.196,523.105,228.423z"/>
					</defs>
					<clipPath id="SVGID_00000062150104028866012100000010220643384172058752_">
						<use xlink:href="#SVGID_00000085939878423682765160000000235158731396765619_"  style="overflow:visible;"/>
					</clipPath>
					<g style="clip-path:url(#SVGID_00000062150104028866012100000010220643384172058752_);">
						<path style="fill:#D6906F;" d="M157.464,61.22c-0.535-0.073-1.072-0.127-1.613-0.155c-1.449-0.075-2.959,0.052-4.229,0.752
							c-0.227,0.125-0.454,0.279-0.566,0.512c-0.259,0.543,0.224,1.134,0.675,1.531c1.382,1.216,3.122,2.888,4.854,3.572
							c1.587,0.627,3.632,0.13,5.168-0.403c1.948-0.676,3.633-1.113,5.713-1.456c0.26-0.043,0.536-0.094,0.728-0.275
							c0.345-0.326,0.236-0.936-0.099-1.272c-0.335-0.336-0.818-0.469-1.277-0.588c-1.408-0.366-2.817-0.732-4.225-1.098
							C160.899,61.899,159.194,61.457,157.464,61.22z"/>
						<g>
							<path d="M172.051,52.528L172.051,52.528c-1.446-1.798-1.16-4.428,0.638-5.873l2.001-1.608
								c1.798-1.445,4.428-1.16,5.873,0.639l0,0c1.445,1.798,1.16,4.428-0.639,5.873l-2.001,1.608
								C176.126,54.612,173.497,54.326,172.051,52.528z"/>
							<path d="M155.324,70.976c-0.866,0.498-2.562,1.266-4.022,1.762c-0.733,0.249-1.247,1.03-1.031,1.601
								c0.758,2.002,3.103,3.646,4.489,3.104c8.018-1.873,15.437-7.813,20.345-12.758c1.396-1.407,1.397-3.569,2.326-5.16
								c0.942-1.614,2.405-2.959,2.015-4.739c-0.187-0.854-0.759-1.501-1.557-1.861c-0.703-0.317-1.607-0.9-2.66-0.578
								c-0.764,0.233-1.512,0.828-1.97,1.503C165.544,65.221,158.928,68.901,155.324,70.976z"/>
							<path style="fill:#F2B430;" d="M193.952,114.655c-5.585-18.803-12.888-36.868-21.788-54.248l15.2-12.22
								c14.465,12.258,30.659,23.163,48.299,32.936L193.952,114.655z"/>
							<path style="fill:#E8654B;" d="M209.907,92.051c-11.518,9.26-18.689,19.461-16.017,22.785
								c2.672,3.324,14.176-1.487,25.694-10.747c11.518-9.259,18.689-19.461,16.017-22.785
								C232.929,77.98,221.426,82.792,209.907,92.051z"/>
							<path style="fill:#70A1BD;" d="M174.204,65.642l-0.503-0.626c-3.959-4.925-3.176-12.127,1.749-16.086l0,0
								c4.925-3.959,12.127-3.176,16.086,1.749l0.503,0.625L174.204,65.642z"/>
							<g>
								<defs>
									<path id="SVGID_00000081626391700401937680000009423398269324357251_" d="M209.907,92.051
										c-11.518,9.26-18.689,19.461-16.017,22.785c2.672,3.324,14.176-1.487,25.694-10.747
										c11.518-9.259,18.689-19.461,16.017-22.785C232.929,77.98,221.426,82.792,209.907,92.051z"/>
								</defs>
								<clipPath id="SVGID_00000088839121652107152060000000492263032026912385_">
									<use xlink:href="#SVGID_00000081626391700401937680000009423398269324357251_"  style="overflow:visible;"/>
								</clipPath>
								<path style="clip-path:url(#SVGID_00000088839121652107152060000000492263032026912385_);fill:#1B2258;" d="
									M216.204,100.077c-3.526,2.834-8.573,2.41-11.272-0.948c-2.699-3.358-2.03-8.378,1.496-11.213
									c3.526-2.834,8.573-2.41,11.272,0.948C220.399,92.223,219.729,97.243,216.204,100.077z"/>
							</g>
							<path style="fill:none;stroke:#FFFFFF;stroke-width:2;stroke-miterlimit:10;" d="M209.907,92.051
								c-11.518,9.26-18.689,19.461-16.017,22.785c2.672,3.324,14.176-1.487,25.694-10.747
								c11.518-9.259,18.689-19.461,16.017-22.785C232.929,77.98,221.426,82.792,209.907,92.051z"/>
							<g>
								<defs>
									<path id="SVGID_00000004528785306428877500000002004122370389280652_" d="M193.952,114.655
										c-5.585-18.803-12.888-36.868-21.788-54.248l15.2-12.22c14.465,12.258,30.659,23.163,48.299,32.936L193.952,114.655z"/>
								</defs>
								<clipPath id="SVGID_00000178925740715059456760000013320331611040834949_">
									<use xlink:href="#SVGID_00000004528785306428877500000002004122370389280652_"  style="overflow:visible;"/>
								</clipPath>
								
									<path style="clip-path:url(#SVGID_00000178925740715059456760000013320331611040834949_);fill:none;stroke:#1B2258;stroke-miterlimit:10;" d="
									M229.424,77.483c-2.715-3.378-13.354,0.667-23.762,9.035c-10.408,8.367-16.645,17.888-13.93,21.266"/>
							</g>
						</g>
						<path style="fill:#D6906F;" d="M161.328,84.354c0.57-0.732,0.391-2.007-0.468-2.356c0.973,0.505,2.186,0.763,3.145,0.234
							c0.959-0.529,1.309-2.083,0.423-2.727c1.023,0.803,2.719,0.504,3.405-0.601c0.686-1.105,0.202-2.758-0.972-3.318
							c1.443,0.38,3.653,0.845,4.368-0.968c0.669-1.698-1.599-3.199-2.817-3.985c-2.426-1.563-4.851-3.126-7.277-4.69
							c-1.578-1.017-3.162-2.037-4.863-2.832c-1.149-0.537-2.348-0.97-3.46-1.579c-1.581-0.866-2.949-2.066-4.303-3.257
							c-15.799-13.896-26.966-31.549-37.46-49.446c-1.705-2.908-3.489-5.852-6.061-8.031c-2.572-2.178-6.111-3.494-9.362-2.607
							c-3.322,0.907-5.742,3.978-6.635,7.304c-0.893,3.326-0.472,6.869,0.344,10.215c6.278,25.762,27.902,43.072,49.394,56.473
							c1.768,1.103,3.536,2.205,5.304,3.308c1.39,0.867,2.79,1.741,3.978,2.868c0.952,0.902,1.755,1.954,2.742,2.817
							c1.643,1.436,3.622,2.216,5.637,2.924C157.765,84.581,160.137,85.881,161.328,84.354z"/>
						<path style="fill:none;stroke:#171616;stroke-width:0.75;stroke-linecap:round;stroke-miterlimit:10;" d="M167.246,75.886
							c-0.377-0.249-2.999-2.178-3.376-2.427"/>
						<path style="fill:none;stroke:#171616;stroke-width:0.75;stroke-linecap:round;stroke-miterlimit:10;" d="M164.429,79.504
							c-0.721-0.449-2.204-1.712-2.925-2.161"/>
						<path style="fill:none;stroke:#171616;stroke-width:0.75;stroke-linecap:round;stroke-miterlimit:10;" d="M161.317,82.253
							c-0.41-0.299-1.735-1.298-2.145-1.596"/>
					</g>
				</g>
			</g>
			<g>
				<g>
					<g>
						<g>
							<path style="fill:#1C6652;" d="M194.853,382.713c-0.85-3.706-3.823-6.601-8.94-6.303
								c-15.545,0.905-32.315,14.161-36.952,28.62c7.16-3.694,15.361-6.469,23.432-7.134c6.811-0.561,12.103,1.066,18.09-3.537
								C194.284,391.438,195.749,386.624,194.853,382.713z M166.598,387.24c0.585,3.111-5.775,5.588-1.522-0.971
								C165.152,386.348,166.248,385.499,166.598,387.24z M183.386,393.19c-0.926,1.782-9.192-2.691-4.225-3.625
								C180.088,389.859,184.476,390.52,183.386,393.19z M187.356,389.426c-0.102,1.052-5.831,0.928-4.833-1.748
								C183.423,387.161,186.972,387.037,187.356,389.426z"/>
						</g>
						<path style="fill:none;stroke:#1C0C03;stroke-width:0.5;stroke-miterlimit:10;" d="M172.401,389.155
							c-33.87,12.874-24.393,27.771-34.805,51.282"/>
					</g>
					<g>
						<path style="fill:#1C6652;" d="M151.311,343.779c-2.385-2.56-5.853-4.176-9.372-4.566c-8.718-0.968-17.619,5.58-19.289,14.191
							c-0.388,2-0.427,4.048-0.465,6.085c-0.451,24.202-1.285,50.795,8.915,73.306c1.89-5.17,3.269-11.314,6.167-15.996
							c2.566-4.147,5.561-7.877,7.648-12.431c4.508-9.29,7.188-19.367,8.587-29.573c1.118-8.159,3.325-19.68,0.086-27.507
							C153.045,345.978,152.264,344.803,151.311,343.779z M134.092,369.867c-1.156,0.374-6.284-7.582-1.565-5.915
							C133.239,364.492,136.165,368.706,134.092,369.867z M137.329,355.834c0.997,6.398-6.916,0.605-5.968-3.593
							C133.48,349.175,137.014,351.682,137.329,355.834z M142.605,398.592c-0.455,2.169-4.865,6.316-3.785,0.897
							C139.475,396.102,143.161,394.71,142.605,398.592z"/>
						
							<line style="fill:none;stroke:#1C0C03;stroke-width:0.5;stroke-miterlimit:10;" x1="137.369" y1="373.27" x2="129.868" y2="446.994"/>
					</g>
					<g>
						<path style="fill:#1C6652;" d="M120.301,401.14c-2.041-6.795-7.308-12.211-14.343-13.797
							c-5.617-1.266-33.7-1.958-24.992,11.58c1.119,1.74,2.942,2.898,4.792,3.823c2.885,1.443,5.983,2.459,9.162,3.004
							c4.514,0.775,9.197,0.61,13.588,1.913c6.037,1.792,7.865,8.754,10.076,14.136c1.329-0.79,1.665-2.531,1.87-4.063
							c0.599-4.482,1.198-9.034,0.536-13.507C120.833,403.175,120.602,402.143,120.301,401.14z"/>
					</g>
					<path style="fill:none;stroke:#1C0C03;stroke-width:0.5;stroke-miterlimit:10;" d="M118.431,439.101
						c-0.027-4.727,1.184-19.652,0.325-24.301c-0.81-4.384-2.032-8.8-4.592-12.449c-2.561-3.649-6.67-6.444-11.128-6.467"/>
				</g>
				<polygon style="fill:#447CA8;" points="110.791,437.108 146.001,437.108 142.015,464.678 115.109,464.678 				"/>
			</g>
		</g>
	</g>
</g>
</svg>
