<svg width="286" height="130" viewBox="0 0 286 130" fill="none" xmlns="http://www.w3.org/2000/svg">
<path fill-rule="evenodd" clip-rule="evenodd" d="M207.523 14.522C221.397 14.9053 232.425 18.6879 243.453 22.9353C279.62 36.8834 291.716 58.5247 266.933 79.791C228.394 112.77 138.627 134.354 69.0198 124.393C53.6042 122.198 32.7338 120.263 17.4368 109.542C3.20705 99.5738 3.79996 87.7236 10.3219 76.7527C16.9625 65.5042 29.7693 55.1515 39.9673 48.4968C84.5539 19.4621 173.846 -6.92638 254.6 6.98544C256.26 7.25348 257.92 6.79251 258.395 5.95589C258.869 5.11928 258.038 4.22217 256.497 3.95412C173.371 -10.3633 81.2332 16.5919 35.3422 46.4727C22.6539 54.7708 6.05347 68.6227 1.31021 82.9548C-1.89149 92.7503 0.361096 102.764 12.6936 111.474C28.9392 122.894 51.1142 125.131 67.4784 127.469C139.339 137.757 232.187 115.542 271.912 81.4815C298.593 58.6241 285.787 35.3413 246.892 20.3491C235.034 15.7406 222.938 11.7581 207.878 11.343C206.218 11.2978 204.796 11.9733 204.796 12.8507C204.677 13.728 205.981 14.4768 207.523 14.522Z" fill="#FF7266"/>
</svg>
