<svg width="688" height="818" viewBox="0 0 688 818" fill="none" xmlns="http://www.w3.org/2000/svg">
<path d="M343.998 186.851C321.32 186.851 303.317 203.457 302.202 223.783L313.785 223.783C314.912 209.265 328.201 197.705 343.998 197.705C359.501 197.705 372.431 209.01 373.509 223.783H385.793C384.658 203.466 366.343 186.851 343.998 186.851Z" fill="#D9D9D9" stroke="#181818" stroke-width="4"/>
<path d="M436.3 224.734C436.295 225.121 436.29 225.482 436.285 225.812H449.26V210.446C449.26 202.564 442.484 196.26 434.256 196.26H421.502C420.49 196.26 418.861 195.738 418.508 194.213C416.177 189.86 413.622 186.919 410.89 183.773C410.522 183.35 410.151 182.924 409.778 182.489C409.088 181.833 407.925 180.722 407.111 179.559L406.38 178.515L407.017 177.411L418.633 157.308C419.957 153.852 418.519 149.622 415.218 147.789L415.207 147.783L380.604 128.29C376.479 126.666 372.006 128.151 370.104 131.514L370.095 131.53L370.086 131.545L358.75 150.766L358.11 151.851L356.854 151.742C352.949 151.404 349.134 151.075 344.982 151.075C341.201 151.075 337.418 151.402 333.632 152.058L332.262 152.295L331.562 151.092L320.594 132.233C320.592 132.229 320.59 132.226 320.588 132.222C319.321 130.117 317.206 128.227 315.408 127.738C313.456 127.208 311.155 127.46 309.105 128.571C309.102 128.573 309.098 128.575 309.094 128.577L275.512 147.42C273.761 148.544 272.457 150.166 271.946 152.112C271.438 154.045 271.649 156.537 273.375 159.529C273.377 159.532 273.379 159.536 273.382 159.539L283.997 177.389L284.812 178.761L283.657 179.86C282.578 180.887 282.013 181.433 281.436 182.257L281.374 182.345L281.303 182.427C280.953 182.826 280.61 183.216 280.273 183.599C277.129 187.168 274.494 190.16 272.383 194.466L272.225 194.788L271.966 195.034L271.938 195.061C271.781 195.211 271.513 195.466 271.218 195.677C270.919 195.89 270.323 196.26 269.524 196.26H253.228C245.028 196.26 238.224 202.875 238.224 210.446V225.812H251.937V225.794V225.76V225.725V225.691V225.655V225.62V225.584V225.549V225.513V225.476V225.44V225.403V225.367V225.329V225.292V225.255V225.217V225.179V225.141V225.103V225.064V225.025V224.986V224.947V224.908V224.868V224.829V224.789V224.749V224.708V224.668V224.627V224.586V224.545V224.504V224.463V224.421V224.379V224.338V224.295V224.253V224.211V224.168V224.125V224.082V224.039V223.996V223.953V223.909V223.865V223.821V223.777V223.733V223.689V223.644V223.6V223.555V223.51V223.465V223.42V223.374V223.329V223.283V223.237V223.191V223.145V223.099V223.053V223.006V222.96V222.913V222.866V222.819V222.772V222.725V222.678V222.63V222.583V222.535V222.487V222.439V222.391V222.343V222.295V222.247V222.198V222.15V222.101V222.052V222.003V221.955V221.906V221.856V221.807V221.758V221.709V221.659V221.61V221.56V221.51V221.46V221.411V221.361V221.311V221.26V221.21V221.16V221.11V221.059V221.009V220.958V220.908V220.857V220.807V220.756V220.705V220.654V220.603V220.552V220.501V220.45V220.399V220.348V220.296V220.245V220.194V220.143V220.091V220.04V219.988V219.937V219.885V219.834V219.782V219.73V219.679V219.627V219.575V219.524V219.472V219.42V219.368V219.317V219.265V219.213V219.161V219.109V219.057V219.006V218.954V218.902V218.85V218.798V218.746V218.694V218.642V218.59V218.539V218.487V218.435V218.383V218.331V218.279V218.228V218.176V218.124V218.072V218.021V217.969V217.917V217.866V217.814V217.762V217.711V217.659V217.608V217.556V217.505V217.454V217.402V217.351V217.3V217.248V217.197V217.146V217.095V217.044V216.993V216.942V216.891V216.84V216.79V216.739V216.688V216.638V216.587V216.537V216.486V216.436V216.386V216.336V216.286V216.236V216.186V216.136V216.086V216.036V215.987V215.937V215.888V215.838V215.789V215.74V215.691V215.642V215.593V215.544V215.495V215.447V215.398V215.35V215.302V215.253V215.205V215.157V215.109V215.062V215.014V214.967V214.919V214.872V214.825V214.778V214.731V214.684V214.637V214.591V214.544V214.498V214.452V214.406V214.36V214.314V214.268V214.223V214.177V214.132V214.087V214.042V213.997V213.953V213.908V213.864V213.82V213.776V213.732V213.688V213.645V213.601V213.558V213.515V213.472V213.429V213.387V213.344V213.302V213.26V213.218V213.176V213.135V213.093V213.052V213.011V212.97V212.93V212.889V212.849V212.809V212.769V212.729V212.69V212.651V212.611V212.573V212.534V212.495V212.457V212.419V212.381V212.343V212.306V212.269V212.232V212.195V212.158V212.122V212.085V212.05V212.014V211.978V211.943V211.908V211.873V211.838V211.804V211.77V211.736V211.702V211.669V211.636V211.603V211.57V211.537V211.505V211.473V211.441V211.41V211.378V211.347V211.317V211.286V211.256V211.226V211.196V211.167V211.137V211.109V211.08V211.051V211.023V210.995V210.968V210.94V210.913V210.887V210.86V210.834V210.808V210.782V210.757V210.732V210.707V210.682V210.658V210.634V210.611V210.587V210.564V210.541V210.519V210.497V210.475V210.453V210.432V210.411V210.39V210.37V210.35V210.33V210.311V210.292V210.273V210.255V210.237V210.219V210.201V210.184V210.167V210.151V210.135V210.119V210.103V210.088V210.073V210.059V210.044V210.031V210.017V210.004V209.991V209.979V209.967V209.955V209.943V209.932V209.922V209.911V209.901V209.892V209.882V209.873V209.865V209.857V209.849V209.841V209.834V209.828V209.821V209.815V209.81V209.804V209.8V209.795V209.791V209.787V209.784V209.781V209.778V209.776V209.775V209.773V209.772V209.772V209.771V207.771H253.937H269.524C275.133 207.771 280.446 204.505 282.949 199.808C284.525 196.104 286.887 193.518 290.035 190.188L290.071 190.15L290.11 190.114C291.193 189.083 292.039 188.067 293.126 186.764C293.356 186.487 293.598 186.198 293.854 185.892L293.867 185.877L293.881 185.862C296.893 182.421 297.443 177.969 295.088 174.046L295.081 174.034L285.516 157.848L284.476 156.089L286.257 155.088L309.638 141.937L311.354 140.972L312.346 142.672L321.202 157.846L321.211 157.861L321.22 157.876C323.623 162.166 328.435 164.497 333.648 163.629C337.304 162.935 340.965 162.587 344.628 162.587C348.285 162.587 351.918 162.934 355.112 163.272L355.172 163.278L355.233 163.289C360.51 164.175 365.686 161.785 368.063 157.829C368.064 157.827 368.065 157.826 368.066 157.825L377.271 142.322L378.267 140.645L379.968 141.598L404.058 155.086L405.844 156.086L404.803 157.848L395.238 174.034L395.217 174.069L395.195 174.102C392.844 177.74 393.132 182.491 396.083 185.862L396.097 185.877L396.11 185.892C396.366 186.198 396.608 186.487 396.838 186.764C397.925 188.067 398.771 189.083 399.854 190.114L399.935 190.191L400.006 190.276C400.311 190.638 400.609 190.991 400.902 191.337C403.282 194.151 405.289 196.524 406.977 199.737C409.464 204.471 414.803 207.771 420.44 207.771H433.902C435.034 207.771 435.574 208.62 435.671 208.778C435.832 209.04 435.91 209.292 435.946 209.418C436.026 209.7 436.073 210.012 436.105 210.277C436.174 210.836 436.22 211.583 436.254 212.414C436.322 214.095 436.344 216.32 436.344 218.539C436.344 220.764 436.322 223.007 436.3 224.734Z" fill="#D9D9D9" stroke="#181818" stroke-width="4"/>
<path d="M29.4116 220.692L343.854 32.2375L658.296 220.692V598.053L343.854 786.658L29.4116 598.053L29.4116 220.692Z" stroke="#D9D9D9" stroke-width="6.26063" stroke-linejoin="round"/>
<path d="M50.5798 224.822L343.907 49.0223L637.234 224.822L50.5798 224.822Z" stroke="#D9D9D9" stroke-width="6.26063" stroke-linejoin="round"/>
<path d="M4 206.553L344 4L684 206.553V612.144L344 814.859L4 612.144L4 206.553Z" stroke="#D9D9D9" stroke-width="6.26063" stroke-linejoin="round" stroke-dasharray="106.93 106.93"/>
<rect width="199.384" height="291.266" rx="99.692" transform="matrix(-1 0 0 1 443.628 424.328)" stroke="#D9D9D9" stroke-width="6.26063"/>
<path d="M244.243 416.674L243.937 723.253" stroke="#D9D9D9" stroke-width="6.26063" stroke-linecap="round"/>
<path d="M443.935 416.674L443.629 723.253" stroke="#D9D9D9" stroke-width="6.26063" stroke-linecap="round"/>
<path d="M443.627 570.115L243.937 570.115" stroke="#D9D9D9" stroke-width="6.26063"/>
<path d="M147.399 646.563L48.4067 587.521L48.4071 244.219L344.02 244.219L102.207 434.821L130.546 471.935L181.037 440.288L200.601 462.44L200.6 646.354H172.792L147.399 646.563Z" stroke="#D9D9D9" stroke-width="6.26063" stroke-linejoin="round"/>
<path d="M540.59 646.687L639.583 587.645L639.582 244.344L343.97 244.344L585.782 434.945L557.444 472.059L506.952 440.412L487.389 462.564L487.389 646.478H515.197L540.59 646.687Z" stroke="#D9D9D9" stroke-width="6.26063" stroke-linejoin="round"/>
<rect x="283.641" y="358.422" width="52.239" height="11.9994" rx="5.99969" transform="rotate(-30.2231 283.641 358.422)" fill="#181818" stroke="#EA4335" stroke-width="7.88945"/>
<rect x="5.39418" y="-1.42288" width="52.8926" height="11.9994" rx="5.99969" transform="matrix(0.864072 0.503368 0.503368 -0.864072 278.164 358.985)" fill="#181818" stroke="#4285F4" stroke-width="7.88945"/>
<rect x="404.271" y="363.902" width="50.9612" height="11.9994" rx="5.99969" transform="rotate(149.777 404.271 363.902)" fill="#181818" stroke="#FBBC04" stroke-width="7.88945"/>
<rect x="-5.39418" y="1.42288" width="52.239" height="11.9994" rx="5.99969" transform="matrix(-0.864072 -0.503368 -0.503368 0.864072 402.44 354.478)" fill="#181818" stroke="#0F9D58" stroke-width="7.88945"/>
</svg>
